<?xml version="1.0" encoding="utf-8"?>
<!-- Generator: Adobe Illustrator 26.0.3, SVG Export Plug-In . SVG Version: 6.00 Build 0)  -->
<svg version="1.1" id="Layer_1" xmlns="http://www.w3.org/2000/svg" xmlns:xlink="http://www.w3.org/1999/xlink" x="0px" y="0px"
	 viewBox="0 0 82.1 119.5" style="enable-background:new 0 0 82.1 119.5;" xml:space="preserve">
<style type="text/css">
	.st0{fill:#189B38;}
	.st1{fill:#53AA32;}
	.st2{fill:#CDD306;}
	.st3{fill:#F9E91E;}
	.st4{fill:#F9BB0F;}
	.st5{fill:#EB6A12;}
	.st6{fill:#DF0920;stroke:#000000;stroke-width:0.5;stroke-miterlimit:10;}
	.st7{fill:#FFFFFF;}
	.st8{fill:#2FA0DA;}
	.st9{fill:#020304;}
</style>
<polygon class="st0" points="21.8,22 7.9,22 7.9,10.5 21.8,10.5 25,16.3 "/>
<polygon class="st1" points="24.3,36.5 7.9,36.5 7.9,25 24.3,25 27.3,30.8 "/>
<polygon class="st2" points="28,51 7.9,51 7.9,39.5 28,39.5 31.2,45.3 "/>
<polygon class="st3" points="30.6,65.5 7.9,65.5 7.9,54 30.6,54 34.3,59.8 "/>
<polygon class="st4" points="33.5,80 7.9,80 7.9,68.5 33.5,68.5 37.1,74.3 "/>
<polygon class="st5" points="36.9,94.5 7.9,94.5 7.9,83 36.9,83 40.6,88.8 "/>
<polygon class="st6" points="39.5,109 7.9,109 7.9,97.5 39.5,97.5 42.8,103.3 "/>
<path class="st7" d="M15.1,18.8l-0.4-1.2h-1.9l-0.4,1.2h-1.2l1.8-5.2h1.4l1.8,5.2H15.1z M14.5,16.7c-0.4-1.1-0.5-1.7-0.6-1.9
	c-0.1-0.1-0.1-0.3-0.1-0.4c-0.1,0.3-0.3,1-0.7,2.3H14.5z"/>
<g>
	<g>
		<path class="st7" d="M16,59.7c0,1-0.2,1.7-0.8,2.1s-1.3,0.7-2.3,0.7h-1.6v-5.6h1.7c1,0,1.7,0.2,2.1,0.7C15.7,58.1,16,58.8,16,59.7
			z M14.9,59.7c0-1.2-0.6-1.8-1.6-1.8h-0.7v3.7H13C14.2,61.6,14.9,60.9,14.9,59.7z"/>
	</g>
</g>
<g>
	<g>
		<path class="st7" d="M14.9,43.2c-0.5,0-0.8,0.2-1.1,0.5s-0.4,0.8-0.4,1.5c0,1.3,0.5,2,1.5,2c0.4,0,0.9-0.1,1.5-0.3v1.1
			c-0.5,0.2-1,0.3-1.7,0.3c-0.8,0-1.5-0.3-2-0.8c-0.4-0.5-0.7-1.3-0.7-2.3c0-0.6,0.1-1.2,0.3-1.7s0.6-0.8,1-1.1
			c0.4-0.3,0.9-0.3,1.5-0.3c0.6,0,1.2,0.2,1.8,0.4l-0.4,1c-0.3-0.1-0.4-0.2-0.7-0.3S15.2,43.2,14.9,43.2z"/>
	</g>
</g>
<g>
	<g>
		<path class="st7" d="M11.4,27.7h1.9c0.8,0,1.4,0.1,1.9,0.3c0.4,0.3,0.6,0.6,0.6,1.2c0,0.3-0.1,0.7-0.3,0.8
			c-0.2,0.3-0.4,0.3-0.7,0.4l0,0c0.4,0.1,0.7,0.3,0.8,0.5c0.2,0.3,0.3,0.5,0.3,0.9c0,0.6-0.2,1-0.6,1.3c-0.4,0.3-0.9,0.4-1.6,0.4
			h-2.3C11.4,33.6,11.4,27.7,11.4,27.7z M12.6,30.1h0.8c0.3,0,0.6-0.1,0.8-0.2c0.2-0.1,0.3-0.3,0.3-0.5c0-0.3-0.1-0.4-0.3-0.5
			c-0.2-0.1-0.4-0.2-0.8-0.2h-0.7V30.1z M12.6,31.1v1.6h0.8c0.3,0,0.6-0.1,0.8-0.2s0.3-0.3,0.3-0.6c0-0.5-0.3-0.8-1.1-0.8L12.6,31.1
			L12.6,31.1z"/>
	</g>
</g>
<g>
	<path class="st7" d="M14.9,74.6h-2.2v1.4h2.4v1.1h-3.8v-5.9h3.7v1.1h-2.3v1.2h2.2V74.6z"/>
</g>
<g>
	<path class="st7" d="M11.4,85.9h3.4v1.1h-2.1v1.3h2v1.1h-2v2.3h-1.3V85.9z"/>
</g>
<g>
	<path d="M16.2,105.7c-0.4,0.1-1.1,0.3-1.8,0.3c-1,0-1.7-0.2-2.2-0.7c-0.5-0.4-0.8-1.2-0.7-2c0-1.8,1.3-2.9,3.1-2.9
		c0.7,0,1.3,0.1,1.6,0.3l-0.3,1c-0.3-0.1-0.7-0.2-1.3-0.2c-1,0-1.8,0.6-1.8,1.8c0,1.1,0.7,1.8,1.7,1.8c0.3,0,0.5,0,0.6-0.1v-1.2
		h-0.8v-1h2.1C16.2,102.8,16.2,105.7,16.2,105.7z"/>
</g>
<g>
	<path class="st8" d="M79,1c1.1,0,2,0.9,2,2v113.3c0,1.1-0.9,2-2,2H3c-1.1,0-2-0.9-2-2V3c0-1.1,0.9-2,2-2H79 M79,0H3
		C1.3,0,0,1.4,0,3v113.3c0,1.7,1.3,3,3,3h76c1.7,0,3-1.3,3-3V3C82,1.4,80.7,0,79,0L79,0z"/>
</g>
<g>
	<g>
		<polygon class="st9" points="72.5,95.8 72.5,110.6 59,110.6 52.1,103.1 59,95.8 		"/>
	</g>
</g>
<g>
	<path class="st7" d="M68.4,106.6c-0.5,0.2-1.5,0.4-2.5,0.4c-1.4,0-2.3-0.3-3-1c-0.7-0.6-1.1-1.6-1-2.7c0-2.5,1.8-3.8,4.1-3.8
		c1,0,1.7,0.2,2.1,0.4l-0.4,1.3c-0.4-0.2-0.9-0.3-1.7-0.3c-1.4,0-2.5,0.8-2.5,2.4c0,1.5,1,2.4,2.3,2.4c0.4,0,0.7,0,0.8-0.1v-1.6
		h-1.1v-1.3h2.8C68.4,102.6,68.4,106.6,68.4,106.6z"/>
</g>
</svg>
