<?xml version="1.0" encoding="utf-8"?>
<!-- Generator: Adobe Illustrator 26.0.3, SVG Export Plug-In . SVG Version: 6.00 Build 0)  -->
<svg version="1.1" id="Layer_1" xmlns="http://www.w3.org/2000/svg" xmlns:xlink="http://www.w3.org/1999/xlink" x="0px" y="0px"
	 viewBox="0 0 166.5 119.5" style="enable-background:new 0 0 166.5 119.5;" xml:space="preserve">
<style type="text/css">
	.st0{fill:#2FA0DA;}
	.st1{fill:#189B38;}
	.st2{fill:#53AA32;}
	.st3{fill:#CDD306;stroke:#000000;stroke-width:0.5;stroke-miterlimit:10;}
	.st4{fill:#F9E91E;}
	.st5{fill:#F9BB0F;}
	.st6{fill:#EB6A12;}
	.st7{fill:#DF0920;}
	.st8{fill:#FFFFFF;}
	.st9{fill:#020304;}
</style>
<path class="st0" d="M160.3,119.5H6.2c-3.4,0-6.2-2.8-6.2-6.2V6.2C0,2.8,2.8,0,6.2,0h154.2c3.4,0,6.2,2.8,6.2,6.2v107.2
	C166.5,116.7,163.7,119.5,160.3,119.5z M6.2,1C3.3,1,1,3.3,1,6.2v107.2c0,2.9,2.3,5.2,5.2,5.2h154.2c2.9,0,5.2-2.3,5.2-5.2V6.2
	c0-2.9-2.3-5.2-5.2-5.2H6.2z"/>
<polygon class="st1" points="69.6,22 10.5,22 10.5,10.5 69.6,10.5 75.6,16.3 "/>
<polygon class="st2" points="76.6,36.5 10.5,36.5 10.5,25 76.6,25 82.6,30.8 "/>
<polygon class="st3" points="83.6,51 10.5,51 10.5,39.5 83.6,39.5 89.6,45.3 "/>
<polygon class="st4" points="90.6,65.5 10.5,65.5 10.5,54 90.6,54 96.6,59.8 "/>
<polygon class="st5" points="97.6,80 10.5,80 10.5,68.5 97.6,68.5 103.6,74.3 "/>
<polygon class="st6" points="104.6,94.5 10.5,94.5 10.5,83 104.6,83 110.6,88.8 "/>
<polygon class="st7" points="111.6,109 10.5,109 10.5,97.5 111.6,97.5 117.6,103.3 "/>
<path class="st8" d="M21.8,19.8l-0.5-1.7h-2.6l-0.5,1.7h-1.6l2.5-7.2H21l2.5,7.2H21.8z M20.9,16.9c-0.5-1.5-0.7-2.4-0.8-2.6
	C20,14.1,20,13.9,20,13.8c-0.1,0.4-0.4,1.4-0.9,3.1H20.9z"/>
<g>
	<g>
		<path class="st8" d="M22.5,59.6c0,1.2-0.3,2.1-1,2.7s-1.6,0.9-2.9,0.9h-2v-7.1h2.2c1.2,0,2.1,0.3,2.7,0.9S22.5,58.5,22.5,59.6z
			 M21,59.6c0-1.5-0.7-2.3-2-2.3h-0.9v4.6h0.6C20.2,62,21,61.2,21,59.6z"/>
	</g>
</g>
<g>
	<g>
		<path d="M20,42.5c-0.6,0-1,0.2-1.3,0.6s-0.5,1-0.5,1.8c0,1.6,0.6,2.4,1.8,2.4c0.5,0,1.1-0.1,1.8-0.4v1.3c-0.6,0.2-1.2,0.4-2,0.4
			c-1,0-1.8-0.3-2.4-0.9c-0.5-0.6-0.8-1.5-0.8-2.7c0-0.7,0.1-1.4,0.4-2s0.7-1,1.2-1.3s1.1-0.4,1.8-0.4c0.7,0,1.4,0.2,2.1,0.5
			L21.6,43c-0.3-0.1-0.5-0.2-0.8-0.3S20.3,42.5,20,42.5z"/>
	</g>
</g>
<g>
	<g>
		<path class="st8" d="M17.2,27h2.2c1,0,1.7,0.1,2.2,0.4s0.7,0.7,0.7,1.4c0,0.4-0.1,0.8-0.3,1c-0.2,0.3-0.5,0.4-0.8,0.5l0,0
			c0.5,0.1,0.8,0.3,1,0.6c0.2,0.3,0.3,0.6,0.3,1.1c0,0.7-0.2,1.2-0.7,1.5c-0.5,0.4-1.1,0.5-1.9,0.5h-2.7C17.2,34,17.2,27,17.2,27z
			 M18.7,29.8h0.9c0.4,0,0.7-0.1,0.9-0.2c0.2-0.1,0.3-0.3,0.3-0.6c0-0.3-0.1-0.5-0.3-0.6c-0.2-0.1-0.5-0.2-1-0.2h-0.8V29.8z
			 M18.7,31v1.9h1c0.4,0,0.7-0.1,0.9-0.2s0.3-0.4,0.3-0.7c0-0.6-0.4-0.9-1.3-0.9h-0.9V31z"/>
	</g>
</g>
<g>
	<path class="st8" d="M21.7,74.8H19v1.8h3v1.4h-4.7v-7.4h4.6v1.4H19v1.5h2.7V74.8z"/>
</g>
<g>
	<path class="st8" d="M17.3,85h4.5v1.4H19v1.7h2.7v1.4H19v3h-1.7V85z"/>
</g>
<g>
	<path class="st8" d="M23.5,106.7c-0.5,0.2-1.5,0.4-2.5,0.4c-1.4,0-2.3-0.3-3-1c-0.7-0.6-1.1-1.6-1-2.7c0-2.5,1.8-3.9,4.2-3.9
		c1,0,1.7,0.2,2.1,0.4l-0.4,1.3c-0.4-0.2-0.9-0.3-1.7-0.3c-1.4,0-2.5,0.8-2.5,2.4c0,1.5,1,2.4,2.3,2.4c0.4,0,0.7,0,0.8-0.1v-1.6
		h-1.1v-1.3h2.8V106.7z"/>
</g>
<g>
	<polygon class="st9" points="156,33.4 156,57.1 134.3,57.1 123.3,45 134.3,33.4 	"/>
</g>
<g>
	<g>
		<path class="st8" d="M145.1,40.8c-1,0-1.7,0.3-2.2,1c-0.5,0.7-0.8,1.7-0.8,3c0,2.7,1,4,3,4c0.8,0,1.8-0.2,3-0.7v2.2
			c-1,0.3-2,0.7-3.4,0.7c-1.7,0-3-0.5-4-1.5c-0.8-1-1.3-2.5-1.3-4.5c0-1.2,0.2-2.4,0.7-3.4c0.5-1,1.2-1.7,2-2.2
			c0.8-0.5,1.8-0.7,3-0.7s2.4,0.3,3.5,0.8l-0.8,2c-0.5-0.2-0.8-0.3-1.3-0.5S145.6,40.8,145.1,40.8z"/>
	</g>
</g>
</svg>
