<?xml version="1.0" encoding="utf-8"?>
<!-- Generator: Adobe Illustrator 24.1.3, SVG Export Plug-In . SVG Version: 6.00 Build 0)  -->
<svg version="1.1" xmlns="http://www.w3.org/2000/svg" xmlns:xlink="http://www.w3.org/1999/xlink" x="0px" y="0px"
	 viewBox="0 0 1521.541 1521.541" enable-background="new 0 0 1521.541 1521.541" xml:space="preserve">
<g id="Guides_For_Artboard">
</g>
<g id="Layer_2">
</g>
<g id="Layer_1">
</g>
<g id="Layer_3">
	<rect x="-2082.541" y="-237" fill="#606060" width="3948" height="3836"/>
	<g>
		<g>
			<path fill="#FFFFFF" d="M1276.93,927.187h-79.127c-11.705,0-21.195-9.488-21.195-21.195s9.489-21.195,21.195-21.195h79.127
				c11.705,0,21.195,9.488,21.195,21.195S1288.635,927.187,1276.93,927.187z"/>
			<path fill="#FFFFFF" d="M1115.851,927.187h-356.07c-11.705,0-21.195-9.488-21.195-21.195s9.489-21.195,21.195-21.195h356.07
				c11.705,0,21.195,9.488,21.195,21.195S1127.556,927.187,1115.851,927.187z"/>
			<path fill="#FFFFFF" d="M896.84,925.774c-11.705,0-21.195-9.488-21.195-21.195v-96.082c0-11.707,9.489-21.195,21.195-21.195
				s21.195,9.488,21.195,21.195v96.082C918.034,916.286,908.545,925.774,896.84,925.774z"/>
			<path fill="#FFFFFF" fill-opacity="0.25" d="M764.412,288c-308.43,0-559.358,250.927-559.358,559.356v278.906
				c0,11.707,9.489,21.195,21.195,21.195h100.795c11.705,0,21.195-9.488,21.195-21.195c0-11.707-9.489-21.195-21.195-21.195h-79.6
				V847.356c0-45.65,5.975-89.926,17.136-132.116h161.739c11.705,0,21.195-9.488,21.195-21.195c0-11.707-9.489-21.195-21.195-21.195
				H277.784c21.395-59.48,53.398-113.935,93.724-161.079h249.802c11.705,0,21.195-9.488,21.195-21.195s-9.489-21.195-21.195-21.195
				H412.125c92.394-86.172,216.279-138.993,352.288-138.993c38.178,0,75.39,4.198,111.232,12.088v126.906H717.392
				c-11.705,0-21.195,9.488-21.195,21.195s9.489,21.195,21.195,21.195h299.551v161.079H788.04v-96.082
				c0-11.707-9.489-21.195-21.195-21.195c-11.705,0-21.195,9.488-21.195,21.195v96.082H547.834
				c-11.705,0-21.195,9.488-21.195,21.195c0,11.707,9.489,21.195,21.195,21.195h716.412c11.16,42.19,17.136,86.466,17.136,132.116
				v257.711H782.388c-11.705,0-21.195,9.488-21.195,21.195c0,11.707,9.489,21.195,21.195,21.195h520.189
				c11.705,0,21.195-9.488,21.195-21.195V847.356C1323.772,538.927,1072.843,288,764.412,288z M918.034,353.69
				c74.944,23.37,142.597,63.398,198.667,115.693H918.034V353.69z M1059.332,672.851V511.772h97.987
				c40.326,47.144,72.329,101.599,93.724,161.079H1059.332z"/>
			<path fill="#FFFFFF" d="M1038.137,1140.546c-11.705,0-21.195-9.488-21.195-21.195V921.535c0-11.707,9.489-21.195,21.195-21.195
				c11.705,0,21.195,9.488,21.195,21.195v197.817C1059.332,1131.058,1049.843,1140.546,1038.137,1140.546z"/>
			<g>
				<path fill="#FFFFFF" d="M641.468,1239.535H327.043c-11.705,0-21.195-9.488-21.195-21.195V979.274
					c0-98.373,80.033-178.407,178.406-178.407c98.374,0,178.408,80.035,178.408,178.407v239.066
					C662.662,1230.047,653.173,1239.535,641.468,1239.535z M348.238,1197.145h272.035V979.274
					c0-75.001-61.017-136.018-136.017-136.018c-75.001,0-136.019,61.017-136.019,136.018V1197.145z"/>
				<path fill="#FFFFFF" d="M782.388,1239.535H641.468c-11.705,0-21.195-9.488-21.195-21.195s9.489-21.195,21.195-21.195h119.726
					v-176.945c0-97.567-61.017-176.945-136.018-176.945H484.255c-11.705,0-21.195-9.488-21.195-21.195s9.489-21.195,21.195-21.195
					h140.921c98.374,0,178.407,98.392,178.407,219.334v198.139C803.583,1230.047,794.094,1239.535,782.388,1239.535z"/>
			</g>
			<path fill="#FFFFFF" d="M548.269,1239.535c-11.705,0-21.195-9.488-21.195-21.195v-207.189c0-23.612-19.208-42.82-42.818-42.82
				c-23.611,0-42.82,19.207-42.82,42.82v207.189c0,11.707-9.489,21.195-21.195,21.195s-21.195-9.488-21.195-21.195v-207.189
				c0-46.984,38.224-85.209,85.208-85.209c46.984,0,85.209,38.225,85.209,85.209v207.189
				C569.464,1230.047,559.974,1239.535,548.269,1239.535z"/>
			<g>
				<path fill="#FFFFFF" d="M327.043,1105.067h-79.6V847.356c0-6.39,0.157-12.743,0.388-19.078h-42.417
					c-0.212,6.337-0.36,12.69-0.36,19.078v278.906c0,11.707,9.489,21.195,21.195,21.195h100.795
					c11.705,0,21.195-9.488,21.195-21.195C348.238,1114.555,338.748,1105.067,327.043,1105.067z"/>
				<path fill="#FFFFFF" d="M1280.994,828.279c0.232,6.335,0.389,12.688,0.389,19.078v257.711H782.388
					c-11.705,0-21.195,9.488-21.195,21.195c0,11.707,9.489,21.195,21.195,21.195h520.189c11.705,0,21.195-9.488,21.195-21.195
					V847.356c0-6.388-0.148-12.741-0.36-19.078H1280.994z"/>
			</g>
		</g>
		<path fill="#FFFFFF" d="M208.72,870.668H98.508c-11.705,0-21.195-9.488-21.195-21.195s9.489-21.195,21.195-21.195H208.72
			c11.705,0,21.195,9.488,21.195,21.195S220.425,870.668,208.72,870.668z"/>
		<path fill="#FFFFFF" d="M1421.054,870.668h-118.69c-11.705,0-21.195-9.488-21.195-21.195s9.489-21.195,21.195-21.195h118.69
			c11.705,0,21.195,9.488,21.195,21.195S1432.759,870.668,1421.054,870.668z"/>
	</g>
</g>
</svg>
