<svg id="Layer_1" data-name="Layer 1" xmlns="http://www.w3.org/2000/svg" xmlns:xlink="http://www.w3.org/1999/xlink" viewBox="0 0 419.62 141.02"><defs><style>.cls-1{fill:url(#linear-gradient);}</style><linearGradient id="linear-gradient" x1="231.87" y1="161.99" x2="200.82" y2="-14.12" gradientUnits="userSpaceOnUse"><stop offset="0" stop-color="#c53d72"/><stop offset="0.5" stop-color="#ea5360"/><stop offset="1" stop-color="#f39463"/></linearGradient></defs><title>Hoozzi Logo</title><path class="cls-1" d="M419.4,42.71c-1.22,6.7-6.87,10.55-13.76,9.26s-10.89-7-9.81-13.69,6.75-10.71,13.78-9.39S420.62,36,419.4,42.71ZM383.31,121l8.36-51.62A10.43,10.43,0,0,1,404.09,61h0a10.84,10.84,0,0,1,8.85,12.39l-9.34,51.44a10.24,10.24,0,0,1-11.92,8.37h0A10.62,10.62,0,0,1,383.31,121ZM370,112.49c-12-1.94-18-2.82-30-4.39Q359.9,90,380.71,73a9.38,9.38,0,0,0,3.35-5.83A9.91,9.91,0,0,0,375.66,56c-15.33-2.33-30.63-4.42-46-6.3a8.21,8.21,0,0,0-9.24,7.22A8.43,8.43,0,0,0,327.9,66c11.47,1.35,17.19,2.11,28.63,3.79Q337.15,86.41,318.6,104,293,101.2,267.25,99.73c23.14-24.49,47.08-47.83,72.07-70.34a13,13,0,0,0,4.33-8.24h0c.84-7.39-4.92-14.21-12.89-15.09C303,3.17,275.28,1.16,247.39,0c-6.8-.23-12.43,4.79-12.56,11.12h0c-.13,6.34,5.17,11.58,11.84,11.81,19.12.79,38.16,1.95,57.24,3.49q-27.42,26.26-53.3,54l.37-.81c.26-.51.62-1.3,1.12-2.21,1-1.84,2.49-4.49,4.47-7.47l.47-.69c-2.13-19.42-21.67-29.54-38.69-29.81-13-.21-23.82,4.3-30.8,11.82-1.84-21.2-23.4-31.17-41.77-30.34-13.9.62-27.94,7.19-34.64,20.18h0s0-.71.22-1.85a15.24,15.24,0,0,1,.51-2.08,19.91,19.91,0,0,1,1.05-2.64,23.44,23.44,0,0,1,1.69-2.93A25,25,0,0,1,117,28.62a23.71,23.71,0,0,1,1.89-1.79l-.63-8c-.61-7.71-7.81-13.39-16.08-12.56h0C94,7.14,87.91,14.15,88.71,21.84l3.92,37.53c-19.15,2.33-38.2,5-57.25,8.15L29.56,30.26c-1.19-7.63-8.82-12.69-17-11.17h0C4.34,20.6-1.17,28.09.21,35.69l16.71,91.58a16.43,16.43,0,0,0,19,13.49h0a17,17,0,0,0,13.5-19.41l-1.55-10.29a4.21,4.21,0,0,1,.92-3.31c6.19-7.46,9.35-11.17,15.76-18.53a4.28,4.28,0,0,1,5.56-.79c8.06,5.3,12,8,19.91,13.45a4.11,4.11,0,0,1,1.73,2.94l1.14,10.35a16.54,16.54,0,0,0,17.94,14.93h0a16.89,16.89,0,0,0,14.8-18.3c-.7-8.92-1.05-13.37-1.76-22.29,7,4.52,16.21,6.37,26.06,6.1,11.44-.32,26.85-7.42,32.82-18.22h0s0,.73-.11,1.94a11.8,11.8,0,0,1-.44,2.15,20.75,20.75,0,0,1-1,2.69,20.34,20.34,0,0,1-1.39,2.54c4.85,16.85,21.08,27.86,38,27.55a51.91,51.91,0,0,0,13.54-1.81,13.35,13.35,0,0,0,12.09,9.18c26,.82,52,2.8,77.82,5.75a11.24,11.24,0,0,0,12.31-10l.18.24a7,7,0,0,1,.47.67,3.15,3.15,0,0,1,.5,1.09,7,7,0,0,1,.32,1.57,6.89,6.89,0,0,1-.06,1.82,6.64,6.64,0,0,1-.32,1.31c13.15,1.71,19.71,2.67,32.81,4.83a8.11,8.11,0,0,0,9.27-6.87A8.34,8.34,0,0,0,370,112.49Zm-271-11.23a2.35,2.35,0,0,1-3.27.58C85.35,94.6,80.12,91.05,69.49,84.09a4.21,4.21,0,0,0-5.46.78c-8.47,9.68-12.61,14.56-20.69,24.41a2.36,2.36,0,0,1-3.31.36,2.4,2.4,0,0,1-.33-3.38c2.49-3.06,3.75-4.59,6.28-7.64l-1.84-12.2a3.15,3.15,0,0,1,2.63-3.55,3.05,3.05,0,0,1,3.54,2.56l1,6.85C56,86.72,58.36,84,63.17,78.47a4.26,4.26,0,0,1,5.51-.78c12.09,7.92,18,12,29.69,20.23A2.4,2.4,0,0,1,98.91,101.25ZM149,78.59c-10.94.66-18.91-6.88-19.77-18.85S135.42,39,146.75,38.3s19.31,7.2,19.78,19.18S159.79,77.93,149,78.59Zm69,18.62c-10.75-.08-18.09-8.15-18.2-20.15s7.33-20.29,18.48-20.21,18.48,8.49,18.2,20.48S228.58,97.29,218,97.21Z"/></svg>