<?xml version="1.0" encoding="utf-8"?>
<!-- Generator: Adobe Illustrator 21.0.2, SVG Export Plug-In . SVG Version: 6.00 Build 0)  -->
<svg version="1.1" id="Layer_1" xmlns="http://www.w3.org/2000/svg" xmlns:xlink="http://www.w3.org/1999/xlink" x="0px" y="0px"
	 viewBox="0 0 72.1 77" style="enable-background:new 0 0 72.1 77;" xml:space="preserve">
<style type="text/css">
	.st0{fill:#67747C;}
</style>
<path class="st0" d="M70.1,35.3H38.1v-8h16.7c1.1,0,2-0.9,2-2V2c0-1.1-0.9-2-2-2H17.4c-1.1,0-2,0.9-2,2v23.3c0,1.1,0.9,2,2,2h16.7v8
	H2c-1.1,0-2,0.9-2,2V75c0,1.1,0.9,2,2,2s2-0.9,2-2V52.7h64.1V75c0,1.1,0.9,2,2,2s2-0.9,2-2V37.3C72.1,36.2,71.3,35.3,70.1,35.3z
	 M19.4,4h33.3v19.3H19.4V4z M4,48.7v-9.3h64.1v9.3H4z"/>
</svg>
