<?xml version="1.0" encoding="utf-8"?>
<!-- Generator: Adobe Illustrator 21.0.2, SVG Export Plug-In . SVG Version: 6.00 Build 0)  -->
<svg version="1.1" id="Layer_1" xmlns="http://www.w3.org/2000/svg" xmlns:xlink="http://www.w3.org/1999/xlink" x="0px" y="0px"
	 viewBox="0 0 74.1 51.1" style="enable-background:new 0 0 74.1 51.1;" xml:space="preserve">
<style type="text/css">
	.st0{fill:#252C31;}
</style>
<path class="st0" d="M72.1,14.3h-3.4V2c0-1.1-0.9-2-2-2H7.4c-1.1,0-2,0.9-2,2v12.3H2c-1.1,0-2,0.9-2,2v22.8c0,1.1,0.9,2,2,2h3.4v8.1
	c0,1.1,0.9,2,2,2c1.1,0,2-0.9,2-2v-8.1h55.4v8.1c0,1.1,0.9,2,2,2s2-0.9,2-2v-8.1h3.4c1.1,0,2-0.9,2-2V16.3
	C74.1,15.2,73.2,14.3,72.1,14.3z M9.4,4h55.4v10.3h-2.4c-1.1,0-2,0.9-2,2v9H13.8v-9c0-1.1-0.9-2-2-2H9.4V4z M70.1,37.1H4V18.3h5.8v9
	c0,1.1,0.9,2,2,2h50.5c1.1,0,2-0.9,2-2v-9h5.8V37.1z"/>
</svg>
