<?xml version="1.0" encoding="utf-8"?>
<!-- Generator: Adobe Illustrator 21.0.2, SVG Export Plug-In . SVG Version: 6.00 Build 0)  -->
<svg version="1.1" id="Layer_1" xmlns="http://www.w3.org/2000/svg" xmlns:xlink="http://www.w3.org/1999/xlink" x="0px" y="0px"
	 viewBox="0 0 200 97.7" style="enable-background:new 0 0 200 97.7;" xml:space="preserve">
<style type="text/css">
	.st0{fill:#FFFFFF;}
	.st1{fill:#FDC75D;}
</style>
<g>
	<path class="st0" d="M199.9,20c-0.6,3.1-3.3,4.9-6.6,4.3c-3.3-0.6-5.2-3.3-4.7-6.4s3.2-5,6.6-4.4C198.6,14.1,200.5,16.8,199.9,20z
		 M182.7,56.6c1.3-8,2.7-16.1,4-24.1c0.4-2.7,3.1-4.4,5.9-3.9l0,0c2.8,0.5,4.7,3.1,4.2,5.8c-1.5,8-3,16-4.5,24.1
		c-0.5,2.7-3,4.4-5.7,3.9l0,0C184.1,61.8,182.3,59.3,182.7,56.6z M176.3,52.6c-5.7-0.9-8.6-1.3-14.3-2.1
		c6.3-5.6,12.8-11.1,19.4-16.4c0.9-0.7,1.4-1.7,1.6-2.7c0.4-2.5-1.4-4.8-4-5.2c-7.3-1.1-14.6-2.1-21.9-2.9c-2.2-0.2-4.2,1.3-4.4,3.4
		c-0.2,2.1,1.4,4,3.6,4.2c5.5,0.6,8.2,1,13.6,1.8c-6.2,5.2-12.2,10.5-18.1,16c-8.1-0.9-16.3-1.5-24.5-2c11-11.5,22.4-22.4,34.4-32.9
		c1.2-1,1.9-2.4,2.1-3.9l0,0c0.4-3.5-2.3-6.6-6.1-7.1c-13.2-1.4-26.4-2.3-39.7-2.8c-3.2-0.1-5.9,2.2-6,5.2l0,0
		c-0.1,3,2.5,5.4,5.6,5.5c9.1,0.4,18.2,0.9,27.3,1.6c-8.7,8.2-17.2,16.6-25.4,25.2c0,0,0.1-0.1,0.2-0.4c0.1-0.2,0.3-0.6,0.5-1
		c0.5-0.9,1.2-2.1,2.1-3.5c0.1-0.1,0.2-0.2,0.2-0.3c-1-9.1-10.3-13.8-18.4-13.9c-6.2-0.1-11.4,2-14.7,5.5C88.5,14,78.2,9.4,69.5,9.8
		c-6.6,0.3-13.3,3.4-16.5,9.4c0,0,0,0,0,0c0,0,0-0.3,0.1-0.9c0-0.3,0.1-0.6,0.2-1c0.1-0.4,0.3-0.8,0.5-1.2c0.2-0.5,0.5-0.9,0.8-1.4
		c0.3-0.4,0.7-0.9,1.2-1.4c0.3-0.3,0.6-0.6,0.9-0.8c-0.1-1.5-0.2-2.2-0.3-3.7c-0.3-3.6-3.7-6.3-7.7-5.9l0,0
		c-3.9,0.4-6.8,3.7-6.4,7.3c0.7,7,1.1,10.5,1.9,17.6c-9.1,1.1-18.2,2.4-27.3,3.8c-1.1-7-1.7-10.5-2.8-17.4C13.5,10.6,9.9,8.2,6,8.9
		l0,0c-3.9,0.7-6.5,4.2-5.9,7.8c2.7,14.3,5.3,28.6,8,42.8c0.8,4.3,4.8,7.1,9.1,6.3l0,0c4.2-0.8,7.1-4.8,6.4-9.1
		c-0.3-1.9-0.4-2.9-0.7-4.8c-0.1-0.6,0.1-1.1,0.4-1.6c3-3.5,4.5-5.2,7.5-8.7c0.7-0.8,1.8-0.9,2.7-0.4c3.8,2.5,5.7,3.7,9.5,6.3
		c0.5,0.3,0.8,0.8,0.8,1.4c0.2,1.9,0.3,2.9,0.5,4.8c0.5,4.3,4.3,7.4,8.5,7l0,0c4.2-0.4,7.4-4.2,7.1-8.6c-0.3-4.2-0.5-6.3-0.8-10.4
		c3.3,2.1,7.7,3,12.4,2.9c5.5-0.1,12.8-3.5,15.6-8.5c0,0,0,0,0,0s0,0.3-0.1,0.9c0,0.3-0.1,0.6-0.2,1c-0.1,0.4-0.3,0.8-0.5,1.3
		c-0.2,0.4-0.4,0.8-0.7,1.2c2.3,7.9,10,13,18.1,12.9c2.3,0,4.5-0.3,6.5-0.8c0.8,2.4,3.1,4.2,5.8,4.3c12.4,0.4,24.8,1.3,37.1,2.7
		c2.9,0.3,5.5-1.7,5.9-4.7c0,0,0,0,0.1,0.1c0,0.1,0.1,0.2,0.2,0.3c0.1,0.1,0.2,0.3,0.2,0.5c0.1,0.2,0.1,0.5,0.2,0.7
		c0,0.3,0,0.6,0,0.9c0,0.2-0.1,0.4-0.2,0.6c6.3,0.8,9.4,1.3,15.6,2.3c2.1,0.3,4.1-1.1,4.4-3.2C179.9,55,178.5,53,176.3,52.6z
		 M47.1,47.4c-0.4,0.5-1.1,0.6-1.6,0.3c-4.9-3.4-7.4-5-12.5-8.3c-0.8-0.5-1.9-0.4-2.6,0.4c-4,4.5-6,6.8-9.9,11.4
		c-0.4,0.5-1.1,0.5-1.6,0.2c-0.5-0.4-0.6-1.1-0.2-1.6c1.2-1.4,1.8-2.1,3-3.6c-0.4-2.3-0.5-3.4-0.9-5.7c-0.1-0.8,0.4-1.5,1.3-1.7
		c0.8-0.1,1.6,0.4,1.7,1.2c0.2,1.3,0.3,1.9,0.5,3.2c2.2-2.6,3.4-3.9,5.7-6.5c0.7-0.7,1.8-0.9,2.6-0.4c5.8,3.7,8.6,5.6,14.2,9.5
		C47.4,46.2,47.5,46.9,47.1,47.4z M71,36.8c-5.2,0.3-9-3.2-9.4-8.8c-0.4-5.6,3-9.7,8.4-10c5.3-0.3,9.2,3.4,9.4,9
		C79.6,32.5,76.2,36.5,71,36.8z M103.9,45.5c-5.1,0-8.6-3.8-8.7-9.4c-0.1-5.6,3.5-9.5,8.8-9.5c5.2,0,8.8,4,8.7,9.6
		C112.6,41.8,109,45.5,103.9,45.5z"/>
	<path class="st1" d="M33.9,93.2c-1.1,0-2-0.3-2.6-1c-0.6-0.7-0.9-1.7-0.9-2.9c0-1.2,0.2-2.3,0.7-3.3c0.5-1.1,1.1-1.9,1.9-2.5
		c0.8-0.6,1.7-0.9,2.6-0.9c0.7,0,1.3,0.2,1.7,0.6c0.4,0.4,0.7,0.9,0.7,1.6c0,1.2-0.5,2-1.6,2.6c-1,0.6-2.6,0.9-4.6,0.9h-0.3
		c0,0.3-0.1,0.6-0.1,0.9c0,1.1,0.2,1.9,0.7,2.4c0.5,0.6,1.2,0.8,2,0.8c0.8,0,1.7-0.2,2.6-0.7v0.9C35.9,93,34.9,93.2,33.9,93.2z
		 M35.5,83.3c-0.8,0-1.6,0.4-2.3,1.1c-0.7,0.7-1.2,1.7-1.6,3h0.5c3.3,0,4.9-0.9,4.9-2.6c0-0.4-0.1-0.8-0.4-1.1
		C36.3,83.4,35.9,83.3,35.5,83.3z"/>
	<path class="st1" d="M41,93l-1.6-10.4h1l1,7c0.2,1.1,0.3,1.9,0.3,2.4h0.1c0.3-0.7,0.7-1.6,1.2-2.5l3.9-7h1L42,93H41z"/>
	<path class="st1" d="M51.3,93.2c-1.1,0-2-0.3-2.6-1c-0.6-0.7-0.9-1.7-0.9-2.9c0-1.2,0.2-2.3,0.7-3.3c0.5-1.1,1.1-1.9,1.9-2.5
		c0.8-0.6,1.7-0.9,2.6-0.9c0.7,0,1.3,0.2,1.7,0.6c0.4,0.4,0.7,0.9,0.7,1.6c0,1.2-0.5,2-1.6,2.6c-1,0.6-2.6,0.9-4.6,0.9h-0.3
		c0,0.3-0.1,0.6-0.1,0.9c0,1.1,0.2,1.9,0.7,2.4c0.5,0.6,1.1,0.8,2,0.8c0.8,0,1.7-0.2,2.6-0.7v0.9C53.3,93,52.4,93.2,51.3,93.2z
		 M52.9,83.3c-0.8,0-1.6,0.4-2.3,1.1c-0.7,0.7-1.2,1.7-1.6,3h0.5c3.3,0,4.9-0.9,4.9-2.6c0-0.4-0.1-0.8-0.4-1.1
		C53.7,83.4,53.4,83.3,52.9,83.3z"/>
	<path class="st1" d="M62.5,82.4c0.4,0,0.8,0,1.2,0.1l-0.2,0.9c-0.3-0.1-0.7-0.1-1.1-0.1c-0.6,0-1.2,0.2-1.7,0.6
		c-0.5,0.4-1,1-1.5,1.8c-0.4,0.8-0.8,1.7-1,2.7l-1,4.6h-0.9l2.2-10.4h0.8l-0.3,2h0.1c0.5-0.6,0.9-1,1.2-1.3c0.3-0.3,0.7-0.5,1-0.6
		C61.7,82.5,62.1,82.4,62.5,82.4z"/>
	<path class="st1" d="M64.1,82.6h1l0.8,5.2c0.3,2.2,0.5,3.7,0.5,4.3h0.1c0.3-0.7,0.9-1.8,1.8-3.5l3.3-6h1l-6.8,12.3
		c-0.5,0.8-0.8,1.4-1.2,1.7c-0.3,0.3-0.7,0.6-1.1,0.8c-0.4,0.2-0.9,0.3-1.4,0.3c-0.4,0-0.8-0.1-1.2-0.2v-0.9
		c0.5,0.2,0.9,0.3,1.3,0.3c0.5,0,1-0.2,1.4-0.5c0.4-0.3,0.8-0.8,1.2-1.6c0.4-0.7,0.7-1.3,1-1.8L64.1,82.6z"/>
	<path class="st1" d="M78.3,82.6l-0.2,0.8h-2.7l-1.3,6.1C74,90.1,74,90.6,74,91c0,0.9,0.4,1.3,1.2,1.3c0.4,0,0.9-0.1,1.5-0.2v0.8
		c-0.6,0.2-1.2,0.3-1.6,0.3c-0.6,0-1.1-0.2-1.5-0.5c-0.3-0.3-0.5-0.9-0.5-1.5c0-0.5,0.1-1.1,0.3-2l1.2-5.8h-1.7l0.1-0.6l1.8-0.2
		l0.9-2.4h0.5l-0.5,2.5H78.3z"/>
	<path class="st1" d="M84.9,93l1.4-6.6c0.1-0.6,0.2-1.1,0.2-1.5c0-0.5-0.1-0.9-0.4-1.2c-0.3-0.3-0.7-0.4-1.3-0.4
		c-0.7,0-1.4,0.2-2,0.6c-0.6,0.4-1.2,1-1.6,1.8c-0.4,0.8-0.8,1.7-1,2.7l-1,4.6h-0.9l3.2-14.9h0.9L81.6,82c-0.3,1.3-0.5,2.2-0.6,2.7
		H81c0.5-0.7,1.1-1.3,1.8-1.7c0.7-0.4,1.4-0.6,2.2-0.6c0.8,0,1.4,0.2,1.8,0.6c0.4,0.4,0.7,1,0.7,1.8c0,0.4-0.1,1-0.2,1.7L85.8,93
		H84.9z"/>
	<path class="st1" d="M90.2,93h-0.9l2.2-10.4h0.9L90.2,93z M91.8,79.9c0-0.4,0.1-0.6,0.2-0.8c0.1-0.2,0.3-0.3,0.6-0.3
		c0.4,0,0.5,0.2,0.5,0.7c0,0.4-0.1,0.7-0.2,0.9c-0.1,0.2-0.3,0.3-0.5,0.3c-0.2,0-0.3-0.1-0.4-0.2C91.9,80.3,91.8,80.1,91.8,79.9z"/>
	<path class="st1" d="M100.3,93l1.4-6.6c0.1-0.6,0.2-1.1,0.2-1.5c0-0.5-0.1-0.9-0.4-1.2c-0.3-0.3-0.7-0.4-1.3-0.4
		c-0.7,0-1.4,0.2-2,0.6c-0.6,0.4-1.2,1-1.6,1.8c-0.4,0.8-0.8,1.7-1,2.7l-1,4.6h-0.9L96,82.6h0.8l-0.4,2.1h0.1c1-1.5,2.4-2.3,4-2.3
		c0.8,0,1.4,0.2,1.9,0.6c0.4,0.4,0.6,1,0.6,1.8c0,0.4-0.1,1-0.2,1.7l-1.4,6.5H100.3z"/>
	<path class="st1" d="M114.5,82.6l-0.2,0.8l-2.3,0.1c0.2,0.2,0.3,0.4,0.4,0.8c0.1,0.4,0.2,0.7,0.2,1.1c0,0.7-0.2,1.4-0.5,2
		c-0.3,0.6-0.8,1.1-1.4,1.4c-0.6,0.3-1.3,0.5-2,0.5c-0.4,0-0.6,0-0.7-0.1c-0.5,0.2-0.9,0.4-1.2,0.7c-0.3,0.3-0.4,0.5-0.4,0.8
		c0,0.3,0.1,0.5,0.3,0.6c0.2,0.1,0.6,0.3,1.1,0.3l1.2,0.1c2.2,0.2,3.3,1,3.3,2.5c0,0.7-0.2,1.3-0.6,1.9c-0.4,0.5-1,1-1.8,1.3
		c-0.8,0.3-1.7,0.4-2.8,0.4c-1.2,0-2.1-0.2-2.8-0.7c-0.7-0.5-1-1.1-1-1.9c0-1.5,1-2.6,3-3.2c-0.5-0.3-0.7-0.7-0.7-1.2
		c0-0.8,0.6-1.4,1.8-1.9c-0.5-0.2-0.8-0.6-1.1-1c-0.3-0.4-0.4-0.9-0.4-1.5c0-0.7,0.2-1.4,0.5-2c0.3-0.6,0.8-1.1,1.4-1.4
		c0.6-0.3,1.3-0.5,2-0.5c0.4,0,0.9,0.1,1.4,0.2H114.5z M104.1,95c0,0.6,0.3,1.1,0.8,1.4c0.5,0.3,1.2,0.5,2.1,0.5
		c1.3,0,2.3-0.2,3-0.7c0.7-0.5,1.1-1.1,1.1-2c0-0.5-0.2-1-0.6-1.2c-0.4-0.3-1.1-0.5-2.1-0.6l-1.5-0.1c-1,0.3-1.7,0.7-2.2,1.1
		C104.3,93.8,104.1,94.3,104.1,95z M106.7,86.2c0,0.7,0.2,1.3,0.6,1.6c0.4,0.4,0.9,0.6,1.6,0.6c0.6,0,1-0.1,1.5-0.4
		c0.4-0.2,0.7-0.6,1-1.1c0.2-0.5,0.3-1,0.3-1.6c0-0.7-0.2-1.2-0.5-1.5c-0.4-0.4-0.9-0.6-1.5-0.6c-0.6,0-1.1,0.1-1.5,0.4
		c-0.4,0.3-0.8,0.6-1,1.1C106.8,85.2,106.7,85.7,106.7,86.2z"/>
	<path class="st0" d="M127.8,93.1c-0.7,0-1.2-0.5-1.2-1.2v-4.6c0-1.3-0.7-1.7-1.8-1.7c-1,0-1.7,0.5-2.2,1.1v5.3
		c0,0.7-0.5,1.2-1.3,1.2c-0.7,0-1.2-0.5-1.2-1.2V81c0-0.7,0.5-1.2,1.3-1.2c0.7,0,1.2,0.5,1.2,1.2v3.7c0.6-0.7,1.8-1.5,3.3-1.5
		c2.1,0,3.1,1.1,3.1,3v5.6C129,92.6,128.5,93.1,127.8,93.1z"/>
	<path class="st0" d="M135.9,93.2c-3.1,0-5-2.3-5-5c0-2.7,1.9-5,5-5c3.1,0,5,2.3,5,5C140.9,91,139,93.2,135.9,93.2z M135.9,85.5
		c-1.5,0-2.4,1.3-2.4,2.7c0,1.5,0.9,2.8,2.4,2.8c1.5,0,2.4-1.3,2.4-2.8C138.3,86.8,137.4,85.5,135.9,85.5z"/>
	<path class="st0" d="M155.7,93.1c-0.7,0-1.2-0.5-1.2-1.2V87c0-0.9-0.4-1.5-1.4-1.5c-0.9,0-1.6,0.6-2,1.1v5.3c0,0.7-0.5,1.2-1.3,1.2
		c-0.7,0-1.2-0.5-1.2-1.2V87c0-0.9-0.4-1.5-1.4-1.5c-0.9,0-1.6,0.6-2,1.1v5.3c0,0.7-0.5,1.2-1.3,1.2c-0.7,0-1.2-0.5-1.2-1.2v-7.3
		c0-0.7,0.5-1.2,1.3-1.2c0.7,0,1.2,0.5,1.2,1.2v0.1c0.4-0.6,1.6-1.5,3.1-1.5c1.4,0,2.3,0.6,2.6,1.7c0.5-0.9,1.8-1.7,3.2-1.7
		c1.7,0,2.8,0.9,2.8,2.9v5.7C157,92.6,156.4,93.1,155.7,93.1z"/>
	<path class="st0" d="M167.2,89.1h-5.8c0.2,1.2,1.1,2.2,2.7,2.2c0.5,0,1.3-0.2,1.8-0.5c0.2-0.1,0.3-0.1,0.5-0.1c0.5,0,1.1,0.4,1.1,1
		c0,1.1-2.4,1.6-3.7,1.6c-2.9,0-5-1.9-5-5c0-2.7,2-5,4.9-5c2.1,0,3.8,1.2,4.4,3.2c0.1,0.4,0.3,1,0.3,1.4
		C168.4,88.5,167.9,89.1,167.2,89.1z M163.7,85.3c-1.5,0-2.2,1.2-2.3,2.1h4.7C166,86.5,165.3,85.3,163.7,85.3z"/>
</g>
</svg>
