<?xml version="1.0" encoding="utf-8"?>
<!-- Generator: Adobe Illustrator 22.0.1, SVG Export Plug-In . SVG Version: 6.00 Build 0)  -->
<svg version="1.1" id="Layer_1" xmlns="http://www.w3.org/2000/svg" xmlns:xlink="http://www.w3.org/1999/xlink" x="0px" y="0px"
	 viewBox="0 0 52.9 72.1" style="enable-background:new 0 0 52.9 72.1;" xml:space="preserve">
<style type="text/css">
	.st0{fill:#67747C;}
</style>
<g>
	<path class="st0" d="M46.4,27.9h-12l1.3-19c0,0,0-0.1,0-0.1c0-4.7-4.2-8.6-9.3-8.6s-9.3,3.9-9.3,8.6c0,0,0,0.1,0,0.1l1.3,19h-12
		c-3.3,0-6.1,2.7-6.1,6.1v32c0,3.3,2.7,6.1,6.1,6.1h39.9c3.3,0,6.1-2.7,6.1-6.1V34C52.5,30.7,49.8,27.9,46.4,27.9z M41.6,61
		c-0.1,0.1-0.1,0.1-0.2,0.2c-0.6-0.4-1.8-2.2-2.5-3.4c-1.8-2.9-3.8-6.2-7.1-6.4c-2.1-0.1-4.2,1.2-6.3,3.9c-2.5,3.3-3.7,4-4.2,4.2
		c-0.2,0.1-0.3,0-1.1-0.6c-1.4-1-3.9-2.8-8.3-0.9c-4.2,1.8-6.3,2.5-7.3,2.8V43.3h43.9v13.5C46.6,56.8,44.5,58.1,41.6,61z M6.5,32
		h14.1c0.6,0,1.1-0.2,1.5-0.6c0.4-0.4,0.6-1,0.5-1.5L21.2,8.7c0-2.4,2.4-4.4,5.2-4.4s5.2,2,5.2,4.4l-1.4,21.1c0,0.6,0.2,1.1,0.5,1.5
		c0.4,0.4,0.9,0.6,1.5,0.6h14.1c1.1,0,2,0.9,2,2v5.2H4.5V34C4.5,32.9,5.4,32,6.5,32z M46.4,68H6.5c-1.1,0-2-0.9-2-2v-1
		c1.2-0.2,3.6-1,8.9-3.3c2.4-1,3.2-0.4,4.4,0.5c3.6,2.6,6.3,1.6,10.8-4.4c1.7-2.2,2.6-2.3,3-2.3c1.2,0.1,2.8,2.6,3.9,4.5
		c1.6,2.6,3.1,5,5.4,5.3c0.1,0,0.3,0,0.4,0c0.8,0,1.9-0.3,3-1.4c2.3-2.2,3.4-2.9,3.9-3.1c0,0,0.1,0,0.1,0V66
		C48.4,67.1,47.5,68,46.4,68z"/>
	<path class="st0" d="M26.5,14.3c1.7,0,3.1-1.4,3.1-3.1s-1.4-3.1-3.1-3.1s-3.1,1.4-3.1,3.1S24.8,14.3,26.5,14.3z M26.5,10.3
		c0.5,0,0.9,0.4,0.9,0.9s-0.4,0.9-0.9,0.9s-0.9-0.4-0.9-0.9S26,10.3,26.5,10.3z"/>
</g>
</svg>
