<?xml version="1.0" encoding="utf-8"?>
<!-- Generator: Adobe Illustrator 22.0.1, SVG Export Plug-In . SVG Version: 6.00 Build 0)  -->
<svg version="1.1" id="Layer_1" xmlns="http://www.w3.org/2000/svg" xmlns:xlink="http://www.w3.org/1999/xlink" x="0px" y="0px"
	 viewBox="0 0 67.6 67" style="enable-background:new 0 0 67.6 67;" xml:space="preserve">
<style type="text/css">
	.st0{fill:#67747C;}
</style>
<path class="st0" d="M67.1,33.7c0-3.1-2.5-5.7-5.7-5.7H33.2c-3.1,0-5.7,2.5-5.7,5.7c0,0.5,0.1,1.1,0.2,1.6h-3l1.7-21.8
	c1.9-1.1,3.2-3.1,3.2-5.4c0-3.5-2.8-6.3-6.3-6.3H19c-0.4-1-1.7-1.5-4-1.5s-3.6,0.5-4,1.5H6.7C3.2,1.8,0.4,4.6,0.4,8
	c0,2.8,1.8,5.1,4.3,6l1.7,23.5c0.1,1.1,1,1.9,2,1.9h5.3l4.6,9.3v15.8c0,1.1,0.9,2,2,2h23.9c0.9,0,1.8-0.6,2-1.5l1.7-6.8
	c3.4-1.4,13.6-6.7,14.6-18.9C65.2,38.7,67.1,36.4,67.1,33.7z M6.7,5.9h16.8c1.2,0,2.2,1,2.2,2.2s-1,2.2-2.2,2.2H6.7
	c-1.2,0-2.2-1-2.2-2.2S5.5,5.9,6.7,5.9z M8.9,14.3h13.5l-1.7,21H10.3L8.9,14.3z M45.7,54.7c-0.7,0.2-1.2,0.8-1.4,1.5l-1.6,6.3H22.4
	V48.2c0-0.3-0.1-0.6-0.2-0.9l-3.9-7.9h14.9h25.3C57.3,50.8,46.2,54.5,45.7,54.7z M61.4,35.3h-0.8H33.2c-0.9,0-1.6-0.7-1.6-1.6
	s0.7-1.6,1.6-1.6h28.2c0.9,0,1.6,0.7,1.6,1.6S62.3,35.3,61.4,35.3z"/>
</svg>
