<?xml version="1.0" encoding="utf-8"?>
<!-- Generator: Adobe Illustrator 21.1.0, SVG Export Plug-In . SVG Version: 6.00 Build 0)  -->
<svg version="1.1" id="Layer_1" xmlns="http://www.w3.org/2000/svg" xmlns:xlink="http://www.w3.org/1999/xlink" x="0px" y="0px"
	 viewBox="0 0 74.1 74.2" style="enable-background:new 0 0 74.1 74.2;" xml:space="preserve">
<style type="text/css">
	.st0{fill:#67747C;}
</style>
<g>
	<path class="st0" d="M58.6,74.2h-1.5c-2.6,0-4.6-2.1-4.6-4.6V68H21.5v1.5c0,2.6-2.1,4.6-4.6,4.6h-1.5c-2.6,0-4.6-2.1-4.6-4.6v-1.8
		c-1.8-0.6-3.1-2.4-3.1-4.4V51c0-2.3,1.7-4.2,3.9-4.6l2.7-9.8c0.9-3.4,4-5.7,7.5-5.7h30.7c3.5,0,6.5,2.3,7.5,5.7l2.7,9.8
		c2.2,0.4,3.9,2.3,3.9,4.6v12.4c0,2-1.3,3.7-3.1,4.4v1.8C63.3,72.1,61.2,74.2,58.6,74.2z M20,64.9h34c0.9,0,1.5,0.7,1.5,1.5v3.1
		c0,0.9,0.7,1.5,1.5,1.5h1.5c0.9,0,1.5-0.7,1.5-1.5v-3.1c0-0.9,0.7-1.5,1.5-1.5c0.9,0,1.5-0.7,1.5-1.5V51c0-0.9-0.7-1.5-1.5-1.5
		h-0.4c-0.7,0-1.3-0.5-1.5-1.1l-3-10.9c-0.5-2-2.4-3.4-4.5-3.4H21.6c-2.1,0-3.9,1.4-4.5,3.4l-3,10.9c-0.2,0.7-0.8,1.1-1.5,1.1h-0.4
		c-0.9,0-1.5,0.7-1.5,1.5v12.4c0,0.9,0.7,1.5,1.5,1.5c0.9,0,1.5,0.7,1.5,1.5v3.1c0,0.9,0.7,1.5,1.5,1.5h1.5c0.9,0,1.5-0.7,1.5-1.5
		v-3.1C18.5,65.6,19.1,64.9,20,64.9z"/>
	<path class="st0" d="M54.4,49.5C54.4,49.5,54.4,49.5,54.4,49.5H19.6c-0.5,0-0.9-0.2-1.2-0.6c-0.3-0.4-0.4-0.9-0.3-1.3l2.3-9.3
		c0.2-0.7,0.8-1.2,1.5-1.2h30.2c0.7,0,1.3,0.5,1.5,1.2l2.2,9c0.1,0.2,0.1,0.4,0.1,0.7C56,48.8,55.3,49.5,54.4,49.5z M21.6,46.4h30.8
		l-1.5-6.2H23.1L21.6,46.4z"/>
	<path class="st0" d="M18.5,61.8c-2.6,0-4.6-2.1-4.6-4.6c0-2.6,2.1-4.6,4.6-4.6c2.6,0,4.6,2.1,4.6,4.6C23.1,59.7,21,61.8,18.5,61.8z
		 M18.5,55.5c-0.9,0-1.7,0.8-1.7,1.7s0.8,1.7,1.7,1.7c0.9,0,1.7-0.8,1.7-1.7S19.4,55.5,18.5,55.5z"/>
	<path class="st0" d="M55.5,61.8c-2.6,0-4.6-2.1-4.6-4.6c0-2.6,2.1-4.6,4.6-4.6c2.6,0,4.6,2.1,4.6,4.6
		C60.2,59.7,58.1,61.8,55.5,61.8z M55.5,55.5c-0.9,0-1.7,0.8-1.7,1.7s0.8,1.7,1.7,1.7c0.9,0,1.7-0.8,1.7-1.7S56.5,55.5,55.5,55.5z"
		/>
	<path class="st0" d="M72.6,74.2c-0.9,0-1.5-0.7-1.5-1.5V22c0-0.6-0.3-1.1-0.8-1.4L37.7,3.3c-0.4-0.2-1-0.2-1.4,0L3.8,20.6
		C3.3,20.9,3,21.4,3,22v50.7c0,0.9-0.7,1.5-1.5,1.5c-0.9,0-1.5-0.7-1.5-1.5V22c0-1.7,1-3.3,2.5-4.1L34.8,0.5c1.3-0.7,3-0.7,4.3,0
		l32.5,17.3c1.5,0.8,2.5,2.4,2.5,4.1v50.7C74.1,73.5,73.4,74.2,72.6,74.2z"/>
</g>
</svg>
