<?xml version="1.0" encoding="utf-8"?>
<!-- Generator: Adobe Illustrator 21.0.2, SVG Export Plug-In . SVG Version: 6.00 Build 0)  -->
<svg version="1.1" id="Layer_1" xmlns="http://www.w3.org/2000/svg" xmlns:xlink="http://www.w3.org/1999/xlink" x="0px" y="0px"
	 viewBox="0 0 75.7 54.1" style="enable-background:new 0 0 75.7 54.1;" xml:space="preserve">
<style type="text/css">
	.st0{fill:#67747C;}
</style>
<g>
	<path class="st0" d="M56.7,27.8c1.1,0,2-0.9,2-2s-0.9-2-2-2H19c-1.1,0-2,0.9-2,2s0.9,2,2,2h16.3v24.3c0,1.1,0.9,2,2,2s2-0.9,2-2
		V27.8H56.7z"/>
	<path class="st0" d="M23.3,32.4c-0.2-0.9-1-1.6-2-1.6H11.2c0,0,0,0,0,0L3.9,1.5C3.7,0.4,2.6-0.2,1.5,0.1C0.4,0.3-0.2,1.4,0.1,2.5
		l7.6,30.9L5.3,51.9c-0.1,1.1,0.6,2.1,1.7,2.2c0.1,0,0.2,0,0.3,0c1,0,1.9-0.7,2-1.7l1.5-11.5h10.1l2.3,11.6c0.2,1,1,1.6,2,1.6
		c0.1,0,0.3,0,0.4,0c1.1-0.2,1.8-1.3,1.6-2.4L23.3,32.4z M11.3,36.9l0.3-2.1h8.1l0.4,2.1H11.3z"/>
	<path class="st0" d="M74.2,0.1c-1.1-0.3-2.2,0.4-2.4,1.5l-7.2,29.2c0,0,0,0,0,0H54.4c-1,0-1.8,0.7-2,1.6l-3.9,19.4
		c-0.2,1.1,0.5,2.1,1.6,2.4c0.1,0,0.3,0,0.4,0c0.9,0,1.8-0.7,2-1.6l2.3-11.6h10.1l1.5,11.5c0.1,1,1,1.7,2,1.7c0.1,0,0.2,0,0.3,0
		c1.1-0.1,1.9-1.1,1.7-2.2L68,33.4l7.6-30.9C75.9,1.4,75.3,0.3,74.2,0.1z M55.6,36.9l0.4-2.1h8.1l0.3,2.1H55.6z"/>
</g>
</svg>
