<?xml version="1.0" encoding="utf-8"?>
<!-- Generator: Adobe Illustrator 22.0.1, SVG Export Plug-In . SVG Version: 6.00 Build 0)  -->
<svg version="1.1" id="Layer_1" xmlns="http://www.w3.org/2000/svg" xmlns:xlink="http://www.w3.org/1999/xlink" x="0px" y="0px"
	 viewBox="0 0 58.2 64.5" style="enable-background:new 0 0 58.2 64.5;" xml:space="preserve">
<style type="text/css">
	.st0{fill:#67747C;}
</style>
<g>
	<path class="st0" d="M55.7,22.4c-1.1,0-2,0.9-2,2v5.5h-2v-0.3c0-4-3.2-7.2-7.2-7.2c-2,0-3.8,0.8-5.1,2.2c-1.3-1.3-3.1-2.2-5.1-2.2
		c-2,0-3.8,0.8-5.1,2.2c-1.3-1.3-3.1-2.2-5.1-2.2c-2,0-3.8,0.8-5.1,2.2c-1.3-1.3-3.1-2.2-5.1-2.2c-4,0-7.2,3.2-7.2,7.2v0.3H2.5
		c-1.1,0-2,0.9-2,2c0,1.1,0.9,2,2,2h4.1v23c0,4,3.2,7.2,7.2,7.2c2,0,3.8-0.8,5.1-2.2c1.3,1.3,3.1,2.2,5.1,2.2c2,0,3.8-0.8,5.1-2.2
		c1.3,1.3,3.1,2.2,5.1,2.2c2,0,3.8-0.8,5.1-2.2c1.3,1.3,3.1,2.2,5.1,2.2c4,0,7.2-3.2,7.2-7.2V34h4.1c1.1,0,2-0.9,2-2v-7.5
		C57.8,23.3,56.9,22.4,55.7,22.4z M13.7,60c-1.7,0-3.1-1.4-3.1-3.1V29.6c0-1.7,1.4-3.1,3.1-3.1s3.1,1.4,3.1,3.1V57
		C16.8,58.7,15.4,60,13.7,60z M24,60c-1.7,0-3.1-1.4-3.1-3.1V29.6c0-1.7,1.4-3.1,3.1-3.1s3.1,1.4,3.1,3.1V57
		C27.1,58.7,25.7,60,24,60z M34.2,60c-1.7,0-3.1-1.4-3.1-3.1V29.6c0-1.7,1.4-3.1,3.1-3.1c1.7,0,3.1,1.4,3.1,3.1V57
		C37.3,58.7,35.9,60,34.2,60z M47.6,57c0,1.7-1.4,3.1-3.1,3.1s-3.1-1.4-3.1-3.1V29.6c0-1.7,1.4-3.1,3.1-3.1s3.1,1.4,3.1,3.1V57z"/>
	<path class="st0" d="M15.7,16.3c-0.5,1-0.2,2.2,0.8,2.8c0.3,0.2,0.7,0.3,1,0.3c0.7,0,1.4-0.4,1.8-1.1c0.1-0.2,2.5-4.6,0-9.4
		c-1.3-2.5,0.9-4.9,1-5c0.8-0.8,0.8-2.1-0.1-2.9c-0.8-0.8-2.1-0.8-2.9,0.1c-0.2,0.2-4.4,4.6-1.7,9.7C17.1,13.5,15.8,16.1,15.7,16.3z
		"/>
	<path class="st0" d="M26.9,16.3c-0.5,1-0.2,2.2,0.8,2.8c0.3,0.2,0.7,0.3,1,0.3c0.7,0,1.4-0.4,1.8-1.1c0.1-0.2,2.5-4.6,0-9.4
		c-1.3-2.5,0.9-4.9,1-5c0.8-0.8,0.8-2.1-0.1-2.9c-0.8-0.8-2.1-0.8-2.9,0.1c-0.2,0.2-4.4,4.6-1.7,9.7C28.4,13.5,27,16.1,26.9,16.3z"
		/>
	<path class="st0" d="M38.2,16.3c-0.5,1-0.2,2.2,0.8,2.8c0.3,0.2,0.7,0.3,1,0.3c0.7,0,1.4-0.4,1.8-1.1c0.1-0.2,2.5-4.6,0-9.4
		c-1.3-2.5,0.9-4.9,1-5c0.8-0.8,0.8-2.1-0.1-2.9S40.7,0.1,39.9,1c-0.2,0.2-4.4,4.6-1.7,9.7C39.6,13.5,38.3,16.1,38.2,16.3z"/>
</g>
</svg>
