<?xml version="1.0" encoding="utf-8"?>
<!-- Generator: Adobe Illustrator 21.0.2, SVG Export Plug-In . SVG Version: 6.00 Build 0)  -->
<svg version="1.1" id="Layer_1" xmlns="http://www.w3.org/2000/svg" xmlns:xlink="http://www.w3.org/1999/xlink" x="0px" y="0px"
	 viewBox="0 0 166.5 119.5" style="enable-background:new 0 0 166.5 119.5;" xml:space="preserve">
<style type="text/css">
	.st0{fill:#2FA0DA;}
	.st1{fill:#189B38;}
	.st2{fill:#53AA32;}
	.st3{fill:#CDD306;}
	.st4{fill:#F9E91E;}
	.st5{fill:#F9BB0F;}
	.st6{fill:#EB6A12;}
	.st7{fill:#010202;}
	.st8{fill:#DF0920;}
	.st9{fill:#020304;}
	.st10{fill:#FFFFFF;}
</style>
<g>
	<path class="st0" d="M160.3,119.5H6.2c-3.4,0-6.2-2.8-6.2-6.2V6.2C0,2.8,2.8,0,6.2,0h154.2c3.4,0,6.2,2.8,6.2,6.2v107.2
		C166.5,116.7,163.7,119.5,160.3,119.5z M6.2,1C3.3,1,1,3.3,1,6.2v107.2c0,2.9,2.3,5.2,5.2,5.2h154.2c2.9,0,5.2-2.3,5.2-5.2V6.2
		c0-2.9-2.3-5.2-5.2-5.2H6.2z"/>
	<polygon class="st1" points="69.6,22 10.5,22 10.5,10.5 69.6,10.5 75.6,16.3 	"/>
	<polygon class="st2" points="76.6,36.5 10.5,36.5 10.5,25 76.6,25 82.6,30.8 	"/>
	<polygon class="st3" points="83.6,51 10.5,51 10.5,39.5 83.6,39.5 89.6,45.3 	"/>
	<polygon class="st4" points="90.6,65.5 10.5,65.5 10.5,54 90.6,54 96.6,59.8 	"/>
	<polygon class="st5" points="97.6,80 10.5,80 10.5,68.5 97.6,68.5 103.6,74.3 	"/>
	<g>
		<polygon class="st6" points="104.6,94.5 10.5,94.5 10.5,83 104.6,83 110.6,88.8 		"/>
		<path class="st7" d="M104.7,94.8H10.3v-12h94.5l6.3,6L104.7,94.8z M10.8,94.3h93.8l5.7-5.5l-5.7-5.5H10.8V94.3z"/>
	</g>
	<polygon class="st8" points="111.6,109 10.5,109 10.5,97.5 111.6,97.5 117.6,103.3 	"/>
	<g>
		<polygon class="st9" points="156,76.9 156,100.6 141.3,100.6 130.3,88.5 141.3,76.9 		"/>
		<g>
			<path class="st10" d="M147.8,84.9c-0.9,0-1.6,0.3-2.1,1c-0.5,0.7-0.8,1.6-0.8,2.9c0,2.5,1,3.8,2.9,3.8c0.8,0,1.8-0.2,2.9-0.6v2
				c-0.9,0.4-2,0.6-3.1,0.6c-1.7,0-2.9-0.5-3.8-1.5s-1.3-2.5-1.3-4.3c0-1.2,0.2-2.2,0.6-3.1c0.4-0.9,1.1-1.6,1.9-2.1
				s1.8-0.7,2.8-0.7c1.1,0,2.2,0.3,3.3,0.8l-0.8,2c-0.4-0.2-0.9-0.4-1.3-0.5C148.6,85,148.2,84.9,147.8,84.9z"/>
		</g>
	</g>
	<g>
		<path class="st10" d="M21.8,19.8l-0.5-1.7h-2.6l-0.5,1.7h-1.6l2.5-7.2h1.9l2.5,7.2H21.8z M20.9,16.9c-0.5-1.5-0.7-2.4-0.8-2.6
			C20,14.1,20,13.9,20,13.8c-0.1,0.4-0.4,1.4-0.9,3.1H20.9z"/>
		<path class="st10" d="M24.8,14.8h-1.1v-0.6h1.1V13h0.6v1.1h1.1v0.6h-1.1v1.1h-0.6V14.8z"/>
		<path class="st10" d="M28.1,14.8H27v-0.6h1.1V13h0.6v1.1h1.1v0.6h-1.1v1.1h-0.6V14.8z"/>
		<path class="st10" d="M31.4,14.8h-1.1v-0.6h1.1V13H32v1.1h1.1v0.6H32v1.1h-0.6V14.8z"/>
	</g>
	<g>
		<g>
			<path class="st10" d="M22.4,103.2c0,1.2-0.3,2.1-1,2.7c-0.7,0.6-1.6,0.9-2.9,0.9h-2v-7.1h2.2c1.2,0,2.1,0.3,2.7,0.9
				S22.4,102.1,22.4,103.2z M20.9,103.2c0-1.5-0.7-2.3-2-2.3H18v4.6h0.6C20.1,105.6,20.9,104.8,20.9,103.2z"/>
		</g>
	</g>
	<g>
		<path class="st9" d="M19.8,86.3c-0.6,0-1,0.2-1.3,0.6c-0.3,0.4-0.5,1-0.5,1.8c0,1.6,0.6,2.4,1.8,2.4c0.5,0,1.1-0.1,1.8-0.4v1.3
			c-0.6,0.2-1.2,0.4-2,0.4c-1,0-1.8-0.3-2.4-0.9c-0.5-0.6-0.8-1.5-0.8-2.7c0-0.7,0.1-1.4,0.4-2c0.3-0.6,0.7-1,1.2-1.3
			c0.5-0.3,1.1-0.4,1.8-0.4c0.7,0,1.4,0.2,2.1,0.5l-0.5,1.2c-0.3-0.1-0.5-0.2-0.8-0.3S20.1,86.3,19.8,86.3z"/>
	</g>
	<g>
		<path class="st10" d="M16.5,70.7h2.2c1,0,1.7,0.1,2.2,0.4c0.5,0.3,0.7,0.7,0.7,1.4c0,0.4-0.1,0.8-0.3,1c-0.2,0.3-0.5,0.4-0.8,0.5
			v0c0.5,0.1,0.8,0.3,1,0.6c0.2,0.3,0.3,0.6,0.3,1.1c0,0.7-0.2,1.2-0.7,1.5c-0.5,0.4-1.1,0.5-1.9,0.5h-2.7V70.7z M18,73.5h0.9
			c0.4,0,0.7-0.1,0.9-0.2c0.2-0.1,0.3-0.3,0.3-0.6c0-0.3-0.1-0.5-0.3-0.6c-0.2-0.1-0.5-0.2-1-0.2H18V73.5z M18,74.7v1.9h1
			c0.4,0,0.7-0.1,0.9-0.2s0.3-0.4,0.3-0.7c0-0.6-0.4-0.9-1.3-0.9H18z"/>
	</g>
	<g>
		<path class="st10" d="M21.8,63.3l-0.5-1.7h-2.6l-0.5,1.7h-1.6l2.5-7.2h1.9l2.5,7.2H21.8z M20.9,60.4c-0.5-1.5-0.7-2.4-0.8-2.6
			C20,57.6,20,57.4,20,57.3c-0.1,0.4-0.4,1.4-0.9,3.1H20.9z"/>
	</g>
	<g>
		<g>
			<path class="st10" d="M21.8,48.8l-0.5-1.7h-2.6l-0.5,1.7h-1.6l2.5-7.2h1.9l2.5,7.2H21.8z M20.9,45.9c-0.5-1.5-0.7-2.4-0.8-2.6
				C20,43.1,20,42.9,20,42.8c-0.1,0.4-0.4,1.4-0.9,3.1H20.9z"/>
			<path class="st10" d="M24.8,43.8h-1.1v-0.6h1.1V42h0.6v1.1h1.1v0.6h-1.1v1.1h-0.6V43.8z"/>
		</g>
	</g>
	<g>
		<g>
			<path class="st10" d="M21.8,34.3l-0.5-1.7h-2.6l-0.5,1.7h-1.6l2.5-7.2h1.9l2.5,7.2H21.8z M20.9,31.4c-0.5-1.5-0.7-2.4-0.8-2.6
				C20,28.6,20,28.4,20,28.3c-0.1,0.4-0.4,1.4-0.9,3.1H20.9z"/>
			<path class="st10" d="M24.8,29.3h-1.1v-0.6h1.1v-1.1h0.6v1.1h1.1v0.6h-1.1v1.1h-0.6V29.3z"/>
			<path class="st10" d="M28.1,29.3H27v-0.6h1.1v-1.1h0.6v1.1h1.1v0.6h-1.1v1.1h-0.6V29.3z"/>
		</g>
	</g>
</g>
</svg>
