<?xml version="1.0" encoding="utf-8"?>
<!-- Generator: Adobe Illustrator 21.0.2, SVG Export Plug-In . SVG Version: 6.00 Build 0)  -->
<svg version="1.1" id="Layer_1" xmlns="http://www.w3.org/2000/svg" xmlns:xlink="http://www.w3.org/1999/xlink" x="0px" y="0px"
	 viewBox="0 0 74.7 51.1" style="enable-background:new 0 0 74.7 51.1;" xml:space="preserve">
<style type="text/css">
	.st0{fill:#67747C;}
</style>
<path class="st0" d="M73.5,28c-0.1-0.1-0.1-0.2-0.2-0.4L60.7,13C60.2,5.8,54.2,0,46.8,0h-19c-7.4,0-13.4,5.8-13.9,13L1.4,27.6
	c-0.1,0.1-0.2,0.2-0.2,0.4C0.4,28.7,0,29.6,0,30.6v8c0,2,1.7,3.7,3.8,3.7h3.5v6.8c0,1.1,0.9,2,2,2s2-0.9,2-2v-6.8h52v6.8
	c0,1.1,0.9,2,2,2s2-0.9,2-2v-6.8h3.5c2.1,0,3.8-1.7,3.8-3.7v-8C74.7,29.6,74.2,28.7,73.5,28z M58,15.9l9.4,11H7.3l9.4-11H58z
	 M27.8,4h19c4.8,0,8.8,3.4,9.7,7.9H18.1C19,7.4,23,4,27.8,4z M70.7,38.3H4v-7.4h66.7V38.3z"/>
</svg>
