<?xml version="1.0" encoding="UTF-8"?>
<svg id="Layer_1" data-name="Layer 1" xmlns="http://www.w3.org/2000/svg" viewBox="0 0 68.8 72.7">
  <defs>
    <style>
      .cls-1 {
        fill: none;
        stroke: #67747c;
        stroke-linecap: round;
        stroke-linejoin: round;
        stroke-width: 3.5px;
      }
    </style>
  </defs>
  <path class="cls-1" d="M29.42,51.14h1.23c1.26,0,2.28-1.02,2.28-2.28h0c0-1.26-1.02-2.28-2.28-2.28H12h0v4.57h17.42c-.19.98-.96,4.21-3.94,6.78-3.17,2.72-6.73,2.87-7.69,2.88l-2.43,10.32H2.01v-36.36c0-1.5,1.22-2.72,2.72-2.72h4.55c1.5,0,2.72,1.22,2.72,2.72v11.81M12,51.14H2.01M17.79,60.79H2.01"/>
  <g>
    <polygon class="cls-1" points="40.36 71.11 62.9 71.11 62.9 64.63 46.16 64.63 40.36 64.63 40.36 71.11"/>
    <polyline class="cls-1" points="46.07 64.63 46.07 47.5 57 47.5 57 64.63"/>
    <path class="cls-1" d="M57,47.5h0c5.29,0,9.58-4.29,9.58-9.58v-.97h-30.29v.77c0,5.4,4.38,9.77,9.77,9.77h0"/>
    <line class="cls-1" x1="41.1" y1="36.95" x2="41.1" y2="32.97"/>
    <line class="cls-1" x1="62.2" y1="36.95" x2="62.2" y2="32.97"/>
    <path class="cls-1" d="M51.53,36.95v-7.45c0-1.7-1.38-3.08-3.08-3.08h0c-1.7,0-3.08,1.38-3.08,3.08v.03"/>
    <polyline class="cls-1" points="41.61 28.34 35.42 28.34 35.42 11.5 67.15 11.5 67.15 28.34 55.16 28.34"/>
  </g>
</svg>