<?xml version="1.0" encoding="utf-8"?>
<!-- Generator: Adobe Illustrator 22.0.1, SVG Export Plug-In . SVG Version: 6.00 Build 0)  -->
<svg version="1.1" id="Layer_1" xmlns="http://www.w3.org/2000/svg" xmlns:xlink="http://www.w3.org/1999/xlink" x="0px" y="0px"
	 viewBox="0 0 54.3 71.2" style="enable-background:new 0 0 54.3 71.2;" xml:space="preserve">
<style type="text/css">
	.st0{fill:#67747C;}
</style>
<g>
	<path class="st0" d="M48.1,0.3h-42c-3.3,0-6,2.7-6,6v58.4c0,3.3,2.7,6,6,6h42c3.3,0,6-2.7,6-6V6.4C54.2,3,51.5,0.3,48.1,0.3z
		 M6.2,4.5h42c1.1,0,1.9,0.9,1.9,1.9v8.1H4.2V6.4C4.2,5.3,5.1,4.5,6.2,4.5z M48.1,66.7h-42c-1.1,0-1.9-0.9-1.9-1.9V18.6H50v46.2
		C50,65.9,49.2,66.7,48.1,66.7z"/>
	<path class="st0" d="M10.4,11.1h8.3c1.1,0,2.1-0.9,2.1-2.1S19.9,7,18.8,7h-8.3C9.3,7,8.4,7.9,8.4,9.1S9.3,11.1,10.4,11.1z"/>
	<path class="st0" d="M35.5,11.1c1.1,0,2-0.9,2-2c0-1.1-0.9-2-2-2c-1.1,0-2,0.9-2,2C33.4,10.2,34.3,11.1,35.5,11.1z"/>
	<path class="st0" d="M43.6,11.1c1.1,0,2-0.9,2-2c0-1.1-0.9-2-2-2c-1.1,0-2,0.9-2,2C41.6,10.2,42.5,11.1,43.6,11.1z"/>
	<path class="st0" d="M27.3,24.1c-10.7,0-19.4,8.7-19.4,19.4C7.9,54.2,16.6,63,27.3,63s19.4-8.7,19.4-19.4
		C46.8,32.8,38.1,24.1,27.3,24.1z M27.3,28.2c7,0,12.9,4.7,14.7,11.2c-3.5-0.3-6.2,2.4-8,4.3c-1.2,1.2-2.4,2.5-3.4,2.7
		C28.9,46.7,27,46,25,45.2c-2.1-0.8-4.3-1.7-6.6-1.4c-2.5,0.3-4.5,1.8-6,3.2c-0.3-1.1-0.4-2.2-0.4-3.4C12,35.1,18.9,28.2,27.3,28.2z
		 M27.3,58.8c-5.7,0-10.6-3.1-13.2-7.7c1-1.3,2.8-3.2,4.8-3.4c1.3-0.2,3,0.5,4.7,1.2c2.3,0.9,5,2,7.9,1.4c2.2-0.5,3.9-2.2,5.5-3.8
		c2.5-2.5,3.8-3.6,5.7-2.9C42.6,52,35.7,58.8,27.3,58.8z"/>
</g>
</svg>
