<?xml version="1.0" encoding="utf-8"?>
<!-- Generator: Adobe Illustrator 21.0.2, SVG Export Plug-In . SVG Version: 6.00 Build 0)  -->
<svg version="1.1" id="Layer_1" xmlns="http://www.w3.org/2000/svg" xmlns:xlink="http://www.w3.org/1999/xlink" x="0px" y="0px"
	 viewBox="0 0 66.8 73.1" style="enable-background:new 0 0 66.8 73.1;" xml:space="preserve">
<style type="text/css">
	.st0{fill:#67747C;}
</style>
<g>
	<path class="st0" d="M64.8,0H2C0.9,0,0,0.9,0,2v69.1c0,1.1,0.9,2,2,2h62.8c1.1,0,2-0.9,2-2V2C66.8,0.9,65.9,0,64.8,0z M31.6,4
		c-0.1,0.2-0.2,0.5-0.2,0.8v39.3C31.2,44,31,44,30.8,44H4.3c-0.1,0-0.2,0-0.3,0V4H31.6z M4,48c0.1,0,0.2,0,0.3,0h26.5
		c0.2,0,0.4,0,0.6-0.1v20.4c0,0.3,0.1,0.5,0.2,0.8H4V48z M62.8,69.1H35.3c0.1-0.2,0.2-0.5,0.2-0.8V4.8c0-0.3-0.1-0.5-0.2-0.8h27.6
		V69.1z"/>
	<path class="st0" d="M41.3,17.5c1.1,0,2-0.9,2-2v-3.1c0-1.1-0.9-2-2-2s-2,0.9-2,2v3.1C39.3,16.6,40.2,17.5,41.3,17.5z"/>
	<path class="st0" d="M49.1,17.5c1.1,0,2-0.9,2-2v-3.1c0-1.1-0.9-2-2-2s-2,0.9-2,2v3.1C47.1,16.6,48,17.5,49.1,17.5z"/>
	<path class="st0" d="M56.8,17.5c1.1,0,2-0.9,2-2v-3.1c0-1.1-0.9-2-2-2s-2,0.9-2,2v3.1C54.8,16.6,55.7,17.5,56.8,17.5z"/>
	<path class="st0" d="M20.3,52h-6.5c-1.1,0-2,0.9-2,2s0.9,2,2,2h6.5c1.1,0,2-0.9,2-2S21.4,52,20.3,52z"/>
</g>
</svg>
