<?xml version="1.0" encoding="utf-8"?>
<!-- Generator: Adobe Illustrator 21.0.2, SVG Export Plug-In . SVG Version: 6.00 Build 0)  -->
<svg version="1.1" id="Layer_1" xmlns="http://www.w3.org/2000/svg" xmlns:xlink="http://www.w3.org/1999/xlink" x="0px" y="0px"
	 viewBox="0 0 68.8 72.7" style="enable-background:new 0 0 68.8 72.7;" xml:space="preserve">
<style type="text/css">
	.st0{fill:#67747C;}
</style>
<path class="st0" d="M66.8,41.9H4V11.3C4,7.3,7.3,4,11.3,4c3,0,5.8,1.9,6.8,4.7c-5.6,1.3-9.9,6.4-9.9,12.4c0,1.1,0.9,2,2,2h21.5
	c0,0,0,0,0,0c1.1,0,2-0.9,2-2c0-0.1,0-0.2,0-0.3C33.6,14.3,28.6,9,22.2,8.4C20.9,3.5,16.4,0,11.3,0C5.1,0,0,5.1,0,11.3v32.7v2.1v0.3
	c0,0.1,0,0.2,0,0.3c0.2,7.1,3.8,13.2,9.3,16.9l-3,6.3c-0.5,1-0.1,2.2,0.9,2.7c0.3,0.1,0.6,0.2,0.9,0.2c0.7,0,1.5-0.4,1.8-1.1
	l2.9-6.1c2.5,1,5.2,1.6,8.1,1.6h26.8c2.9,0,5.6-0.6,8.1-1.6l2.9,6.1c0.3,0.7,1.1,1.1,1.8,1.1c0.3,0,0.6-0.1,0.9-0.2
	c1-0.5,1.4-1.7,0.9-2.7l-3-6.3c5.6-3.8,9.4-10.2,9.4-17.5v-2.1C68.8,42.8,67.9,41.9,66.8,41.9z M29.5,19.1h-17
	c0.9-3.9,4.4-6.8,8.5-6.8C25.1,12.4,28.6,15.2,29.5,19.1z M64.8,46.1c0,9.4-7.6,17-17,17H21c-9.4,0-17-7.6-17-17v-0.1h60.8V46.1z"/>
</svg>
