<?xml version="1.0" encoding="utf-8"?>
<!-- Generator: Adobe Illustrator 24.1.3, SVG Export Plug-In . SVG Version: 6.00 Build 0)  -->
<svg version="1.1" xmlns="http://www.w3.org/2000/svg" xmlns:xlink="http://www.w3.org/1999/xlink" x="0px" y="0px"
	 viewBox="0 0 1521.541 1521.541" enable-background="new 0 0 1521.541 1521.541" xml:space="preserve">
<g id="Guides_For_Artboard">
</g>
<g id="Layer_2">
</g>
<g id="Layer_1">
</g>
<g id="Layer_3">
	<rect x="-2082" y="-2205.541" fill="#606060" width="3948" height="3836"/>
	<path fill="#FFFFFF" d="M1418.944,877.895h-97.002c-10.032-297.665-255.274-536.742-555.341-536.742
		c-300.066,0-545.307,239.076-555.338,536.742H105.056c-11.629,0-21.056,9.426-21.056,21.056c0,11.63,9.427,21.056,21.056,21.056
		h105.848v253.921c0,11.63,9.427,21.056,21.056,21.056h79.079v70.419c0,11.63,9.427,21.056,21.056,21.056h312.366H784.46
		c11.629,0,21.056-9.426,21.056-21.056v-70.419h495.728c11.629,0,21.056-9.426,21.056-21.056V920.007h96.645
		c11.629,0,21.056-9.426,21.056-21.056C1440,887.321,1430.573,877.895,1418.944,877.895z M919.217,406.413
		c74.454,23.217,141.664,62.983,197.366,114.936H919.217V406.413z M1156.935,563.46c40.062,46.836,71.856,100.934,93.111,160.025
		H1059.59V563.46H1156.935z M353.151,1027.902c0-74.51,60.618-135.128,135.128-135.128c74.509,0,135.126,60.618,135.126,135.128
		v216.445h-50.477V1059.57c0-46.677-37.975-84.651-84.651-84.651s-84.65,37.975-84.65,84.651v184.776h-50.477V1027.902z
		 M530.817,1244.347h-85.078V1059.57c0-23.458,19.083-42.539,42.539-42.539s42.538,19.082,42.538,42.539V1244.347z
		 M763.404,1244.347h-97.887v-216.445c0-54.102-24.394-102.591-62.73-135.128h25.489c74.51,0,135.128,78.858,135.128,175.787
		V1244.347z M788.741,976.156h228.738v176.716H805.516v-84.311C805.516,1035.538,799.48,1004.229,788.741,976.156z
		 M1059.59,1152.872V976.156h56.149c11.629,0,21.056-9.426,21.056-21.056c0-11.63-9.427-21.056-21.056-21.056H919.217v-75.801
		c0-11.63-9.427-21.056-21.056-21.056s-21.056,9.426-21.056,21.056v75.801H767.555c-32.48-50.719-82.818-83.382-139.279-83.382
		H488.277c-97.729,0-177.238,79.511-177.238,177.24v124.97h-58.023V896.848c0-45.351,5.936-89.337,17.024-131.251h160.68
		c11.629,0,21.056-9.426,21.056-21.056c0-11.63-9.427-21.056-21.056-21.056H283.158c21.255-59.091,53.048-113.189,93.111-160.025
		h248.166c11.629,0,21.056-9.426,21.056-21.056c0-11.63-9.427-21.056-21.056-21.056H416.62
		c91.789-85.608,214.863-138.083,349.982-138.083c37.928,0,74.896,4.17,110.504,12.008v126.075H719.888
		c-11.629,0-21.056,9.426-21.056,21.056c0,11.63,9.427,21.056,21.056,21.056h297.59v160.025H790.075v-95.453
		c0-11.63-9.427-21.056-21.056-21.056s-21.056,9.426-21.056,21.056v95.453H551.441c-11.629,0-21.056,9.426-21.056,21.056
		c0,11.63,9.427,21.056,21.056,21.056h711.722c11.032,41.705,16.957,85.464,17.016,130.577c-0.121,0.911-0.204,1.833-0.204,2.777
		c0,0.964,0.088,1.904,0.213,2.834v32.734c-1.427-0.306-2.905-0.474-4.424-0.474h-78.609c-11.629,0-21.056,9.426-21.056,21.056
		c0,11.63,9.427,21.056,21.056,21.056h78.609c1.519,0,2.997-0.169,4.424-0.474v177.19H1059.59z"/>
</g>
</svg>
