<svg xmlns="http://www.w3.org/2000/svg" viewBox="0 0 1521.54 1521.54"><defs><style>.cls-1{fill:#606060;}.cls-2,.cls-3{fill:#fff;}.cls-2{fill-opacity:0.25;}</style></defs><g id="Layer_3" data-name="Layer 3"><rect class="cls-1" x="-248" y="-237" width="3948" height="3836"/><path class="cls-2" d="M1417.58,824.85h-97c-10-297.61-255.22-536.64-555.23-536.64s-545.2,239-555.23,536.64H104a21.05,21.05,0,1,0,0,42.1H209.78v253.87a21.05,21.05,0,0,0,21.06,21H331a21,21,0,1,0,0-42.1H251.89v-256a512.29,512.29,0,0,1,17-131.23H429.56a21,21,0,1,0,0-42.1H282a513.7,513.7,0,0,1,93.1-160H623.23a21.05,21.05,0,0,0,0-42.1H415.46c91.77-85.59,214.82-138.06,349.91-138.06a513.18,513.18,0,0,1,110.48,12V468.37H718.67a21.05,21.05,0,1,0,0,42.1H1016.2v160H788.84V575a21,21,0,0,0-42.1,0v95.44H550.25a21,21,0,1,0,0,42.1h711.58a511.77,511.77,0,0,1,17,130.57,22.69,22.69,0,0,0-.2,2.76,20.38,20.38,0,0,0,.22,2.83v32.73a20.88,20.88,0,0,0-4.43-.48h-78.59a21.06,21.06,0,0,0,0,42.11h78.59a20.88,20.88,0,0,0,4.43-.48v177.16H1058.3V923.09h56.14a21.06,21.06,0,0,0,0-42.11H918V805.2a21.06,21.06,0,0,0-42.11,0V881H760.77a21.06,21.06,0,0,0,0,42.11H1016.2v176.68h-233a21.05,21.05,0,1,0,0,42.1h516.68a21.05,21.05,0,0,0,21-21V867h96.62a21.05,21.05,0,1,0,0-42.1ZM918,468.37V353.46a513.66,513.66,0,0,1,197.32,114.91Zm140.34,202.1v-160h97.33a513.87,513.87,0,0,1,93.09,160Z"/><path class="cls-3" d="M643.26,1233.33H331a21,21,0,0,1-21.05-21V974.82c0-97.71,79.49-177.2,177.2-177.2s177.21,79.49,177.21,177.2v237.46A21.05,21.05,0,0,1,643.26,1233.33ZM352,1191.23H622.2V974.82c0-74.49-60.6-135.1-135.1-135.1S352,900.33,352,974.82Z"/><path class="cls-3" d="M783.23,1233.33h-140a21.05,21.05,0,1,1,0-42.1H762.17V1015.47c0-96.9-60.6-175.75-135.1-175.75h-140a21.05,21.05,0,1,1,0-42.1h140c97.71,0,177.21,97.73,177.21,217.85v196.81A21.05,21.05,0,0,1,783.23,1233.33Z"/><path class="cls-3" d="M550.68,1233.33a21.05,21.05,0,0,1-21-21V1006.49a42.53,42.53,0,1,0-85.06,0v205.79a21,21,0,0,1-42.1,0V1006.49a84.64,84.64,0,1,1,169.27,0v205.79A21.05,21.05,0,0,1,550.68,1233.33Z"/></g></svg>