<?xml version="1.0" encoding="utf-8"?>
<!-- Generator: Adobe Illustrator 22.0.1, SVG Export Plug-In . SVG Version: 6.00 Build 0)  -->
<svg version="1.1" id="Layer_1" xmlns="http://www.w3.org/2000/svg" xmlns:xlink="http://www.w3.org/1999/xlink" x="0px" y="0px"
	 viewBox="0 0 69.1 70.1" style="enable-background:new 0 0 69.1 70.1;" xml:space="preserve">
<style type="text/css">
	.st0{fill:#67747C;}
</style>
<path class="st0" d="M66.7,33.9h-3.8V7.2l4.9-2.9c1-0.6,1.3-1.8,0.7-2.8c-0.6-1-1.8-1.3-2.8-0.7L1.3,39.4c-1,0.6-1.3,1.8-0.7,2.8
	c0.4,0.6,1,1,1.7,1c0.4,0,0.7-0.1,1-0.3l1.9-1.1v23.8H2.4c-1.1,0-2,0.9-2,2s0.9,2,2,2h11.9c1.1,0,2-0.9,2-2v-5.9h10.9
	c1.1,0,2-0.9,2-2v-5.9h9.9c1.1,0,2-0.9,2-2v-5.9h10.9c1.1,0,2-0.9,2-2v-5.9h12.7c1.1,0,2-0.9,2-2S67.8,33.9,66.7,33.9z M27.2,49.7
	c-1.1,0-2,0.9-2,2v5.9H14.3c-1.1,0-2,0.9-2,2v5.9h-3V39.3l22.1-13.3v23.7H27.2z M51.9,33.9c-1.1,0-2,0.9-2,2v5.9H39.1
	c-1.1,0-2,0.9-2,2v5.9h-1.6V23.6l23.4-14v24.3H51.9z"/>
</svg>
