<?xml version="1.0" encoding="utf-8"?>
<!-- Generator: Adobe Illustrator 21.1.0, SVG Export Plug-In . SVG Version: 6.00 Build 0)  -->
<svg version="1.1" id="Layer_1" xmlns="http://www.w3.org/2000/svg" xmlns:xlink="http://www.w3.org/1999/xlink" x="0px" y="0px"
	 viewBox="0 0 74.1 62.2" style="enable-background:new 0 0 74.1 62.2;" xml:space="preserve">
<style type="text/css">
	.st0{fill:#67747C;}
</style>
<path class="st0" d="M72.6,41.5h-1.5V17.8h1.5c0.8,0,1.5-0.7,1.5-1.5c0-0.8-0.7-1.5-1.5-1.5h-1.5V7.4c0-0.4-0.2-0.8-0.4-1l-5.9-5.9
	c-0.6-0.6-1.5-0.6-2.1,0l-5.9,5.9c-0.3,0.3-0.4,0.7-0.4,1v7.4h-3V7.4c0-0.4-0.2-0.8-0.4-1L47,0.4c-0.6-0.6-1.5-0.6-2.1,0L39,6.4
	c-0.3,0.3-0.4,0.7-0.4,1v7.4h-3V7.4c0-0.4-0.2-0.8-0.4-1l-5.9-5.9c-0.6-0.6-1.5-0.6-2.1,0l-5.9,5.9c-0.3,0.3-0.4,0.7-0.4,1v7.4h-3
	V7.4c0-0.4-0.2-0.8-0.4-1l-5.9-5.9c-0.6-0.6-1.5-0.6-2.1,0L3.4,6.4C3.1,6.6,3,7,3,7.4v7.4H1.5c-0.8,0-1.5,0.7-1.5,1.5
	c0,0.8,0.7,1.5,1.5,1.5H3v23.7H1.5C0.7,41.5,0,42.2,0,43c0,0.8,0.7,1.5,1.5,1.5H3v16.3c0,0.8,0.7,1.5,1.5,1.5h11.9
	c0.8,0,1.5-0.7,1.5-1.5V44.5h3v16.3c0,0.8,0.7,1.5,1.5,1.5h11.9c0.8,0,1.5-0.7,1.5-1.5V44.5h3v16.3c0,0.8,0.7,1.5,1.5,1.5h11.9
	c0.8,0,1.5-0.7,1.5-1.5V44.5h3v16.3c0,0.8,0.7,1.5,1.5,1.5h11.9c0.8,0,1.5-0.7,1.5-1.5V44.5h1.5c0.8,0,1.5-0.7,1.5-1.5
	C74.1,42.2,73.4,41.5,72.6,41.5z M14.8,59.3H5.9V8l4.4-4.4L14.8,8V59.3z M20.7,41.5h-3V17.8h3V41.5z M32.6,59.3h-8.9V8l4.4-4.4
	L32.6,8V59.3z M38.5,41.5h-3V17.8h3V41.5z M50.4,59.3h-8.9V8l4.4-4.4L50.4,8V59.3z M56.3,41.5h-3V17.8h3V41.5z M68.2,59.3h-8.9V8
	l4.4-4.4L68.2,8V59.3z"/>
</svg>
