<?xml version="1.0" encoding="utf-8"?>
<!-- Generator: Adobe Illustrator 24.1.1, SVG Export Plug-In . SVG Version: 6.00 Build 0)  -->
<svg version="1.1" xmlns="http://www.w3.org/2000/svg" xmlns:xlink="http://www.w3.org/1999/xlink" x="0px" y="0px"
	 viewBox="0 0 1521.541 1521.541" enable-background="new 0 0 1521.541 1521.541" xml:space="preserve">
<g id="Guides_For_Artboard">
</g>
<g id="Layer_2">
</g>
<g id="Layer_1">
</g>
<g id="Layer_3">
	<rect x="-248.083" y="-2206" display="none" fill="#606060" width="3948" height="3836"/>
	<g>
		<g>
			<path fill="#FFFFFF" d="M1274.681,977.855h-78.609c-11.629,0-21.056-9.426-21.056-21.056c0-11.63,9.427-21.056,21.056-21.056
				h78.609c11.629,0,21.056,9.426,21.056,21.056C1295.737,968.429,1286.31,977.855,1274.681,977.855z"/>
			<path fill="#FFFFFF" d="M1114.657,977.855H760.917c-11.629,0-21.056-9.426-21.056-21.056c0-11.63,9.427-21.056,21.056-21.056
				h353.739c11.629,0,21.056,9.426,21.056,21.056C1135.713,968.429,1126.285,977.855,1114.657,977.855z"/>
			<path fill="#FFFFFF" fill-opacity="0.25" d="M765.518,342.852c-306.411,0-555.696,249.285-555.696,555.695v277.08
				c0,11.63,9.427,21.056,21.056,21.056h100.135c11.629,0,21.056-9.426,21.056-21.056s-9.427-21.056-21.056-21.056h-79.079V898.547
				c0-127.132,46.455-243.606,123.252-333.388h248.166c11.629,0,21.056-9.426,21.056-21.056c0-11.63-9.427-21.056-21.056-21.056
				H415.538c91.789-85.608,214.863-138.083,349.982-138.083c37.928,0,74.896,4.17,110.504,12.008v126.075H718.806
				c-11.629,0-21.056,9.426-21.056,21.056c0,11.63,9.427,21.056,21.056,21.056h437.047
				c76.798,89.782,123.252,206.256,123.252,333.388v256.024H783.377c-11.629,0-21.056,9.426-21.056,21.056
				s9.427,21.056,21.056,21.056h516.784c11.629,0,21.056-9.426,21.056-21.056v-277.08
				C1321.217,592.137,1071.931,342.852,765.518,342.852z M918.135,408.111c74.454,23.216,141.664,62.984,197.366,114.936H918.135
				V408.111z"/>
			<path fill="#FFFFFF" d="M897.079,976.451c-11.629,0-21.056-9.426-21.056-21.056v-95.453c0-11.63,9.427-21.056,21.056-21.056
				c11.629,0,21.056,9.426,21.056,21.056v95.453C918.135,967.025,908.708,976.451,897.079,976.451z"/>
			<path fill="#FFFFFF" d="M1037.452,1189.817c-11.629,0-21.056-9.426-21.056-21.056V972.24c0-11.63,9.427-21.056,21.056-21.056
				c11.629,0,21.056,9.426,21.056,21.056v196.522C1058.508,1180.392,1049.08,1189.817,1037.452,1189.817z"/>
			<g>
				<path fill="#FFFFFF" d="M643.379,1288.158H331.012c-11.629,0-21.056-9.426-21.056-21.056V1029.6
					c0-97.729,79.509-177.24,177.238-177.24c97.73,0,177.24,79.511,177.24,177.24v237.501
					C664.435,1278.732,655.007,1288.158,643.379,1288.158z M352.068,1246.046h270.255V1029.6
					c0-74.51-60.618-135.128-135.126-135.128c-74.51,0-135.128,60.618-135.128,135.128V1246.046z"/>
				<path fill="#FFFFFF" d="M783.377,1288.158H643.379c-11.629,0-21.056-9.426-21.056-21.056s9.427-21.056,21.056-21.056h118.943
					v-175.786c0-96.928-60.618-175.787-135.128-175.787H487.195c-11.629,0-21.056-9.426-21.056-21.056
					c0-11.63,9.427-21.056,21.056-21.056h139.999c97.73,0,177.24,97.748,177.24,217.899v196.842
					C804.433,1278.732,795.006,1288.158,783.377,1288.158z"/>
			</g>
			<path fill="#FFFFFF" d="M550.79,1288.158c-11.629,0-21.056-9.426-21.056-21.056v-205.832c0-23.458-19.082-42.539-42.538-42.539
				c-23.456,0-42.54,19.082-42.54,42.539v205.832c0,11.63-9.427,21.056-21.056,21.056s-21.056-9.426-21.056-21.056v-205.832
				c0-46.677,37.973-84.651,84.65-84.651c46.676,0,84.651,37.974,84.651,84.651v205.832
				C571.846,1278.732,562.419,1288.158,550.79,1288.158z"/>
			<g>
				<path fill="#FFFFFF" d="M429.638,725.184H282.075c21.255-59.089,53.054-113.188,93.111-160.025h-53.965
					c-69.911,92.934-111.399,208.404-111.399,333.388v277.08c0,11.63,9.427,21.056,21.056,21.056h100.135
					c11.629,0,21.056-9.426,21.056-21.056s-9.427-21.056-21.056-21.056h-79.079V898.547c0-45.351,5.936-89.337,17.024-131.251
					h160.68c11.629,0,21.056-9.426,21.056-21.056C450.694,734.61,441.267,725.184,429.638,725.184z"/>
				<path fill="#FFFFFF" d="M1155.851,565.159c40.057,46.837,71.857,100.935,93.112,160.025h-190.456V565.159h-42.112v160.025
					H788.992V629.73c0-11.63-9.427-21.056-21.056-21.056S746.88,618.1,746.88,629.73v95.453H550.358
					c-11.629,0-21.056,9.426-21.056,21.056c0,11.63,9.427,21.056,21.056,21.056h711.722c11.087,41.914,17.024,85.9,17.024,131.251
					v256.024H783.377c-11.629,0-21.056,9.426-21.056,21.056s9.427,21.056,21.056,21.056h516.784
					c11.629,0,21.056-9.426,21.056-21.056v-277.08c0-124.984-41.488-240.454-111.4-333.388H1155.851z"/>
			</g>
		</g>
		<path fill="#FFFFFF" d="M213.464,921.706H103.973c-11.629,0-21.056-9.426-21.056-21.056c0-11.63,9.427-21.056,21.056-21.056
			h109.491c11.629,0,21.056,9.426,21.056,21.056C234.52,912.28,225.093,921.706,213.464,921.706z"/>
		<path fill="#FFFFFF" d="M1417.862,921.706h-117.913c-11.629,0-21.056-9.426-21.056-21.056c0-11.63,9.427-21.056,21.056-21.056
			h117.913c11.629,0,21.056,9.426,21.056,21.056C1438.917,912.28,1429.49,921.706,1417.862,921.706z"/>
	</g>
</g>
</svg>
