<?xml version="1.0" encoding="utf-8"?>
<!-- Generator: Adobe Illustrator 24.1.1, SVG Export Plug-In . SVG Version: 6.00 Build 0)  -->
<svg version="1.1" xmlns="http://www.w3.org/2000/svg" xmlns:xlink="http://www.w3.org/1999/xlink" x="0px" y="0px"
	 viewBox="0 0 1521.541 1521.541" enable-background="new 0 0 1521.541 1521.541" xml:space="preserve">
<g id="Guides_For_Artboard">
</g>
<g id="Layer_2">
</g>
<g id="Layer_1">
</g>
<g id="Layer_3">
	<rect x="-248" y="-237" display="none" fill="#606060" width="3948" height="3836"/>
	<g>
		<path fill="#FFFFFF" fill-opacity="0.25" d="M1417.585,824.847h-96.983c-10.03-297.607-255.224-536.635-555.231-536.635
			c-300.006,0-545.199,239.029-555.228,536.635H103.957c-11.626,0-21.052,9.424-21.052,21.052c0,11.628,9.425,21.052,21.052,21.052
			h105.827v253.871c0,11.628,9.425,21.052,21.052,21.052h100.115c11.626,0,21.052-9.424,21.052-21.052s-9.425-21.052-21.052-21.052
			h-79.063V843.796c0-45.342,5.935-89.32,17.021-131.225h160.648c11.626,0,21.052-9.424,21.052-21.052
			c0-11.628-9.425-21.052-21.052-21.052H282.023c21.25-59.079,53.038-113.167,93.092-159.993h248.117
			c11.626,0,21.052-9.424,21.052-21.052c0-11.628-9.425-21.052-21.052-21.052H415.459C507.23,382.78,630.28,330.315,765.372,330.315
			c37.921,0,74.882,4.169,110.482,12.006v126.05H718.667c-11.626,0-21.052,9.424-21.052,21.052c0,11.628,9.425,21.052,21.052,21.052
			h297.531v159.993H788.84v-95.435c0-11.628-9.425-21.052-21.052-21.052c-11.626,0-21.052,9.424-21.052,21.052v95.435H550.253
			c-11.626,0-21.052,9.424-21.052,21.052c0,11.628,9.425,21.052,21.052,21.052h711.581c11.032,41.701,16.952,85.458,17.01,130.566
			c-0.119,0.906-0.202,1.823-0.202,2.762c0,0.964,0.088,1.904,0.212,2.833v32.728c-1.427-0.306-2.904-0.474-4.423-0.474h-78.593
			c-11.626,0-21.052,9.424-21.052,21.052s9.425,21.052,21.052,21.052h78.593c1.519,0,2.996-0.169,4.423-0.474v177.155h-220.554
			V923.088h56.138c11.626,0,21.052-9.424,21.052-21.052s-9.425-21.052-21.052-21.052H917.957v-75.786
			c0-11.628-9.425-21.052-21.052-21.052s-21.052,9.424-21.052,21.052v75.786H760.771c-11.626,0-21.052,9.424-21.052,21.052
			s9.425,21.052,21.052,21.052h255.428v176.681H783.226c-11.626,0-21.052,9.424-21.052,21.052s9.425,21.052,21.052,21.052h516.682
			c11.626,0,21.052-9.424,21.052-21.052V866.95h96.625c11.626,0,21.052-9.424,21.052-21.052
			C1438.636,834.271,1429.211,824.847,1417.585,824.847z M917.957,468.371V353.458c74.439,23.212,141.636,62.971,197.327,114.913
			H917.957z M1058.302,670.468V510.474h97.326c40.054,46.826,71.842,100.914,93.092,159.993H1058.302z"/>
		<g>
			<path fill="#FFFFFF" d="M643.255,1233.33H330.951c-11.626,0-21.052-9.424-21.052-21.052V974.824
				c0-97.71,79.494-177.205,177.203-177.205c97.711,0,177.205,79.495,177.205,177.205v237.454
				C664.307,1223.906,654.882,1233.33,643.255,1233.33z M352.002,1191.226h270.201V974.824c0-74.495-60.606-135.101-135.1-135.101
				c-74.495,0-135.101,60.606-135.101,135.101V1191.226z"/>
			<path fill="#FFFFFF" d="M783.226,1233.33H643.255c-11.626,0-21.052-9.424-21.052-21.052c0-11.628,9.425-21.052,21.052-21.052
				h118.919v-175.752c0-96.909-60.606-175.752-135.101-175.752H487.102c-11.626,0-21.052-9.424-21.052-21.052
				s9.425-21.052,21.052-21.052h139.971c97.711,0,177.204,97.729,177.204,217.855v196.803
				C804.278,1223.906,794.852,1233.33,783.226,1233.33z"/>
		</g>
		<path fill="#FFFFFF" d="M550.685,1233.33c-11.626,0-21.052-9.424-21.052-21.052v-205.792c0-23.453-19.078-42.531-42.529-42.531
			c-23.452,0-42.531,19.078-42.531,42.531v205.792c0,11.628-9.425,21.052-21.052,21.052c-11.626,0-21.052-9.424-21.052-21.052
			v-205.792c0-46.667,37.966-84.634,84.633-84.634c46.667,0,84.634,37.967,84.634,84.634v205.792
			C571.737,1223.906,562.311,1233.33,550.685,1233.33z"/>
	</g>
</g>
</svg>
