<?xml version="1.0" encoding="UTF-8"?> <svg xmlns="http://www.w3.org/2000/svg" xmlns:xlink="http://www.w3.org/1999/xlink" id="Layer_1" data-name="Layer 1" viewBox="0 0 2144.22 762.36"><defs><style>.cls-1{fill:url(#linear-gradient);}.cls-2{fill:#fff;}</style><linearGradient id="linear-gradient" x1="779.49" y1="-90.92" x2="1353.28" y2="902.92" gradientTransform="matrix(1, 0, 0, -1, 0, 734.8)" gradientUnits="userSpaceOnUse"><stop offset="0" stop-color="#e63345"></stop><stop offset="1" stop-color="#e51b5c"></stop></linearGradient></defs><title>Spaciable Icons_Services Journey</title><path class="cls-1" d="M1999.91,220.1a108.56,108.56,0,0,0-93.1,47.7c-20.3,2.4-49.2-5.5-59.9-8.7l-305.6-113.7c-11.6-5.1-45.2-21.2-56-38.8a108.71,108.71,0,0,0-217.4,2.1,22.6,22.6,0,0,0,.1,2.6c-13.2,15.7-42,29.5-52.6,34.1L909.81,259c-11.4,3.4-43.5,12.2-63.7,8.1a108.72,108.72,0,0,0-192.5,26.6c-11.7,15.9-49.8,19.8-62,20.7H302.31c-13.7-1-59.4-5.7-65-26.6l-.3.1a108.82,108.82,0,0,0-107.9-67.6c-54.1,3.5-98,47.5-101.4,101.5a108.71,108.71,0,0,0,209.2,47.9l.3.1c5.5-20.9,51.3-25.7,64.9-26.6h289.3c12.3.9,50.3,4.8,62,20.7a108.71,108.71,0,0,0,199.8,14.3c20-1.2,46.4,6,56.4,9.1l305.6,113.6c10.7,4.7,40,18.7,53,34.7-.3,3.5-.5,7-.5,10.6a108.7,108.7,0,1,0,217.4,0c0-2.1-.1-4.2-.2-6.2,10.7-17.7,44.5-33.9,56.1-39.1l305.6-113.6c9.5-2.9,33.5-9.4,52.9-9.2a108.7,108.7,0,0,0,205.4-56.2C2101.81,266.3,2055.51,221.6,1999.91,220.1Zm-163,140.1-305.7,113.6c-12.1,3.7-47.7,13.3-67.5,7.2a108.61,108.61,0,0,0-174.9,1c-20.3,3.9-52-4.8-63.3-8.2L919.81,360.2c-11.2-5-54.8-20.9-54.8-37.1,0-13.5,43.6-32.1,54.8-37.1l305.6-113.6c10.2-3.1,37.2-10.5,57.2-9a108.76,108.76,0,0,0,187.7.4c20.3-2.8,50,5.3,60.9,8.6L1836.91,286c10.3,4.6,45.4,17.3,48.1,25.5v4.1l.1,4c-.5,6.2-.2,11.6-5.1,15.6C1865.61,346.9,1845.41,356.5,1836.91,360.2Z"></path><path class="cls-2" d="M1438.81,74c-.2,2.2-.4,4.4-.7,6.6a81.43,81.43,0,0,1-15.2,38.1,4.54,4.54,0,0,0-.8,4.5c2.6,10.4.1,19.6-7.4,27.3-4.9,5.1-10,10.1-15,15.1-1.6,1.6-2.9,1.6-4.5,0-6-6-12.1-12-18-18.1a2.45,2.45,0,0,0-2.5-.8c-4.2.6-8.5,1.1-12.7,1.8a3.63,3.63,0,0,1-3.8-1.3c-.3-.4-.6-.8-1.1-1.5-.5.6-.7,1.1-1,1.4-6.4,6.4-12.8,12.7-19.2,19.1a12,12,0,0,1-1.2,1.1,2.45,2.45,0,0,1-3.4-3.4,12,12,0,0,1,1.1-1.2c6.4-6.4,12.8-12.7,19.2-19.1a7,7,0,0,1,1-.8c-4.2-4.2-8.4-8.3-12.8-12.7a3.74,3.74,0,0,1-.6,1c-4.4,4.4-8.8,8.8-13.2,13.3a5.3,5.3,0,0,1-1.2,1,2.57,2.57,0,0,1-3-.3,2.42,2.42,0,0,1-.4-3,6.34,6.34,0,0,1,1-1.2c4.4-4.4,8.8-8.8,13.2-13.3a8.51,8.51,0,0,1,1.3-1c-3.2-1.7-2.9-4.2-2.4-7,.6-3.5.9-7,1.5-10.5a2.78,2.78,0,0,0-.9-2.7c-6-5.9-11.9-11.8-17.8-17.8-1.9-1.9-1.9-3,0-4.9,5.1-5.1,10.1-10.4,15.4-15.3,8.1-7.5,17.5-9.7,28.1-6.5a2.12,2.12,0,0,0,1.9-.4A81.31,81.31,0,0,1,1396,46.7c4-.8,8.2-1.2,12.3-1.8.4-.1.8-.1,1.2-.2h8.2a3,3,0,0,0,1,.2,87.23,87.23,0,0,1,15.2,2.3,2.77,2.77,0,0,1,2.4,2.2c.6,2.7,1.2,5.3,1.6,8s.7,5.7,1,8.5C1438.81,68.6,1438.81,71.3,1438.81,74Zm-24.4-24.3a74.09,74.09,0,0,0-18.6,2.2c-27.1,7.1-46,23.6-56,49.9a1.4,1.4,0,0,0,.4,1.8c13.3,13.2,26.5,26.5,39.7,39.7a1.4,1.4,0,0,0,1.8.4,76.36,76.36,0,0,0,38.2-29.6c12.6-18.7,16.7-39.2,12-61.3a1.49,1.49,0,0,0-1.2-1.2A72.29,72.29,0,0,0,1414.41,49.7Zm3.1,75.8a82.75,82.75,0,0,1-32.7,22.3c4.2,4.3,8.4,8.5,12.7,12.8,5.1-5.2,10.5-10.3,15.3-15.8S1418.91,132.8,1417.51,125.5Zm-81.9-26.8a83.9,83.9,0,0,1,9.1-17.6,85.64,85.64,0,0,1,13.2-15.1c-7-1.5-14.7.2-19.7,4.9-5.2,4.8-10.1,9.9-15.2,14.9-.1.1-.1.2,0,.1C1327.21,90.2,1331.41,94.4,1335.61,98.7Zm35.5,43.4c-9.9-9.9-19.8-19.8-29.6-29.7-.4,2.8-.8,5.8-1.2,8.8a1.57,1.57,0,0,0,.4,1.3c6.7,6.8,13.5,13.6,20.3,20.3a1.19,1.19,0,0,0,1.1.4C1365.11,142.9,1368.21,142.4,1371.11,142.1Z"></path><path class="cls-2" d="M1332.91,147.6c2.3-.1,3.5,2,2.6,3.6a9.38,9.38,0,0,1-.9,1.2L1316,171a4.81,4.81,0,0,1-1.1.9,2.3,2.3,0,0,1-2.9-.4,2.42,2.42,0,0,1-.4-3,10.63,10.63,0,0,1,.9-1.1l18.5-18.5A22.19,22.19,0,0,1,1332.91,147.6Z"></path><path class="cls-2" d="M1317.61,147.6a2.52,2.52,0,0,1,2.4,2.5,2.39,2.39,0,0,1-2.5,2.4,2.61,2.61,0,0,1-2.5-2.5A2.69,2.69,0,0,1,1317.61,147.6Z"></path><path class="cls-2" d="M1379.51,89.8c-1.6-1.5-3-2.9-4.5-4.4-2-2-1.4-4,1.3-4.8l31.5-8.4c2.7-.7,4.2.8,3.5,3.4l-8.4,31.5c-.8,2.8-2.8,3.4-4.9,1.3l-4.1-4.1c-.1-.1-.1-.1-.6-.2a6.07,6.07,0,0,1-.7,1c-5.4,5.5-10.9,10.9-16.4,16.4-1.6,1.6-3,1.9-4.2.7s-.9-2.6.7-4.2l18.5-18.5c1.9-1.9,3-1.9,4.9,0,.9.9,1.8,1.8,2.8,2.9,2.2-8.2,4.3-16.1,6.5-24.4-8.2,2.2-16.2,4.3-24.5,6.6,1.2,1.2,2.3,2.1,3.3,3.1,1.5,1.5,1.5,2.8.1,4.3l-10.8,10.8c-1.3,1.3-2.8,1.4-3.9.3s-1-2.6.3-3.8C1373.11,96.1,1376.21,93,1379.51,89.8Z"></path><path class="cls-2" d="M1365.61,109.6a2.52,2.52,0,0,1-2.4,2.5,2.5,2.5,0,1,1,2.4-2.5Z"></path><path class="cls-2" d="M822.61,310.8a4.92,4.92,0,0,0-2.7-2.6l-8.5-3.5a4.75,4.75,0,0,0-3.7,0,4.92,4.92,0,0,0-2.6,2.7l-9.7,23.8V292.3a1.61,1.61,0,0,0-.6-1.3l-25-25a1.76,1.76,0,0,0-1.3-.6h-71.4a1.9,1.9,0,0,0-1.9,1.9V282a1.9,1.9,0,0,0,1.9,1.9A2,2,0,0,0,699,282V269.2h67.6v23.1a1.9,1.9,0,0,0,1.9,1.9h23.1v46.2l-8.4,20.5a1.13,1.13,0,0,0-.1.8l.9,17.9a2,2,0,0,0,1.2,1.7,1.7,1.7,0,0,0,.7.1,2.11,2.11,0,0,0,1.3-.5l4.4-4.1v12.8H699V289.5a1.9,1.9,0,0,0-1.9-1.9,2,2,0,0,0-1.9,1.9v102a1.9,1.9,0,0,0,1.9,1.9h96.4a1.9,1.9,0,0,0,1.9-1.9V373.4l4.9-4.6a1.79,1.79,0,0,0,.5-.7l8.6-21.1a1.9,1.9,0,0,0-3.5-1.5L798,364.8l-10.6-4.3,16.2-39.7,10.6,4.3-5.6,13.7a1.9,1.9,0,1,0,3.5,1.5l10.6-25.8A4.76,4.76,0,0,0,822.61,310.8Zm-52.3-39,18.5,18.6h-18.5Zm16.6,92.8,8.5,3.5-8,7.4Zm32.2-51.5-3.5,8.6L805,317.4l3.5-8.6a.9.9,0,0,1,.6-.6,1.1,1.1,0,0,1,.8,0l8.5,3.5a.9.9,0,0,1,.6.6A.78.78,0,0,1,819.11,313.1Z"></path><path class="cls-2" d="M712.51,322.9h32.7a1.9,1.9,0,0,0,1.9-1.9,2,2,0,0,0-1.9-1.9h-32.7a1.9,1.9,0,0,0-1.9,1.9A2,2,0,0,0,712.51,322.9Z"></path><path class="cls-2" d="M753.31,334.9h-40.7a1.9,1.9,0,0,0-1.9,1.9,2,2,0,0,0,1.9,1.9h40.7a1.9,1.9,0,0,0,1.9-1.9A2,2,0,0,0,753.31,334.9Z"></path><path class="cls-2" d="M712.51,347.9h12.2a1.9,1.9,0,0,0,1.9-1.9,2,2,0,0,0-1.9-1.9h-12.2a1.9,1.9,0,0,0-1.9,1.9A2,2,0,0,0,712.51,347.9Z"></path><path class="cls-2" d="M755.21,361.8a1.9,1.9,0,0,0-1.9-1.9h-40.7a1.9,1.9,0,0,0,0,3.8h40.7A1.9,1.9,0,0,0,755.21,361.8Z"></path><path class="cls-2" d="M712.51,369.1a1.9,1.9,0,0,0,0,3.8h34.6a1.9,1.9,0,0,0,0-3.8Z"></path><path class="cls-2" d="M724.71,273.9a14.43,14.43,0,0,0-9.9,25l.2.2a14.54,14.54,0,0,0,19.6,0c.1,0,.1-.1.2-.2a14.42,14.42,0,0,0,4.6-10.5A14.81,14.81,0,0,0,724.71,273.9Zm0,25.8a11.66,11.66,0,0,1-6.9-2.3,8,8,0,0,1,13.8,0A11,11,0,0,1,724.71,299.7Zm-2.5-12v-1a2.5,2.5,0,0,1,5,0v1a2.48,2.48,0,0,1-2.5,2.5A2.42,2.42,0,0,1,722.21,287.7Zm11.6,7.4a11.48,11.48,0,0,0-4.6-3.9,6.15,6.15,0,0,0,1.2-3.5v-1a5.7,5.7,0,0,0-5.7-5.7,5.63,5.63,0,0,0-5.7,5.7v1a5.5,5.5,0,0,0,1.2,3.5,10.3,10.3,0,0,0-4.6,3.9,11.21,11.21,0,0,1-2.2-6.7,11.4,11.4,0,0,1,22.8,0A12.1,12.1,0,0,1,733.81,295.1Z"></path><path class="cls-2" d="M2023.11,265.3c2.3.7,4.4,1.7,5.6,3.8a8.49,8.49,0,0,1,1.1,2.6q12.9,42.45,25.7,84.9c1.6,5.4-.6,9.6-6.1,11.2-5.1,1.5-10.1,3.1-15.2,4.6-.9.3-1.3.7-1.2,1.6.1,1.4,0,2.8,0,4.1a1.9,1.9,0,0,1-1.9,2.1c-1.1,0-1.8-.8-1.9-2.1v-4.2a10.38,10.38,0,0,0-1.2.3c-15.9,4.8-31.9,9.7-47.8,14.5-5.7,1.7-9.9-.5-11.6-6.2-3.2-10.6-6.5-21.3-9.7-31.9-.1-.4-.2-.7-.3-1.1a1.84,1.84,0,0,1,1.3-2.3,1.88,1.88,0,0,1,2.3,1.2,6.47,6.47,0,0,1,.4,1.3c3.2,10.6,6.5,21.2,9.6,31.8a5,5,0,0,0,6.5,3.6q34.8-10.65,69.7-21.1c3.2-1,4.4-3.2,3.4-6.5l-19.2-63.3c-2.1-7.1-4.3-14.2-6.4-21.3-.9-3.1-3.5-4.8-6.7-3.6-1,.4-2,.6-3,.9a1.86,1.86,0,0,1-2.4-1.2,1.92,1.92,0,0,1,1.3-2.4c1.7-.6,3.4-1,5.1-1.6A8.32,8.32,0,0,0,2023.11,265.3Z"></path><path class="cls-2" d="M1967.61,285.4v20.9c0,4.3-2.1,7.6-5.6,8.9-3.9,1.4-7.4.3-10.3-3.2a3.91,3.91,0,0,1-.5-.4c.7,2.3,1.3,4.4,1.9,6.5,2.3,7.5,4.6,15,6.8,22.5.1.3.2.6.3,1a1.86,1.86,0,0,1-1.3,2.2,1.67,1.67,0,0,1-2.2-1.1c-.5-1.4-.9-2.9-1.3-4.3-2.8-9.4-5.7-18.7-8.5-28.1a3,3,0,0,0-.4-.8c0,.4-.1.7-.1,1.1v74.1c0,3.2,1.8,5.1,5,5.1h73.1c2.7,0,4.2-1.2,5-3.8.4-1.3,1.2-1.9,2.3-1.7s1.6,1.2,1.3,2.6a8.34,8.34,0,0,1-8,6.7h-73.7c-4.2,0-7.4-2.3-8.5-6a8.92,8.92,0,0,1-.3-2.8V295.5a8.26,8.26,0,0,1,6.1-8.1c1.1-.3,1.5-.7,1.5-1.9.2-5.1,2.5-9,7.2-11.1,4.4-2,8.6-1.4,12.5,1.5a15,15,0,0,1,2.7,2.9c.6.8,1,1.1,2,.8,10.8-3.3,21.7-6.6,32.5-9.9a3,3,0,0,1,1.8-.3,2.57,2.57,0,0,1,1.7,1.3c.2.6-.3,1.4-.8,2-.3.4-1,.5-1.5.6-13.1,4-26.3,8-39.4,12A1.47,1.47,0,0,0,1967.61,285.4Zm1.8-4.6a8.14,8.14,0,0,0-8.8-3.8c-3.6.8-6.5,3.7-6.6,7.2-.2,6.7-.1,13.5-.1,20.3,0,1.1,0,2.2.1,3.2a4.6,4.6,0,0,0,2.4,3.6c3.4,1.9,7.3-.5,7.4-4.5.1-7,0-14,0-21,0-.3.1-.8-.1-1-.4-.4-1-1-1.5-1s-1,.7-1.3,1.2c-.2.3-.1.8-.1,1.2V303a4.4,4.4,0,0,1-.2,1.6,1.55,1.55,0,0,1-1.9,1.2,3.81,3.81,0,0,1-1.6-1.5c-.2-.3-.1-.9-.1-1.3,0-5.8.1-11.7,0-17.5a5.07,5.07,0,0,1,2.9-4.9,5.34,5.34,0,0,1,5.9.7,2.26,2.26,0,0,0,.9.4Zm-19.6,26.5a.37.37,0,0,0,.3-.1V290.9a4,4,0,0,0-3.6,4.6C1947.51,299.5,1948.71,303.4,1949.81,307.3Z"></path><path class="cls-2" d="M2036.91,351c.4.4,1.1.8,1.4,1.5a1.6,1.6,0,0,1-.8,2.1,4.18,4.18,0,0,1-1,.4c-17.4,5.3-34.9,10.6-52.3,15.9-1.9.6-2.9.2-3.2-1s.3-2.1,2.1-2.6c17.3-5.2,34.6-10.5,51.9-15.7A5.28,5.28,0,0,1,2036.91,351Z"></path><path class="cls-2" d="M2032.11,332.3c-.1,1.1-.8,1.6-1.9,1.9-4.6,1.4-9.2,2.8-13.9,4.2-12.8,3.9-25.6,7.8-38.5,11.7-1.9.6-3,.3-3.3-1s.3-2.1,2.3-2.7q25.8-7.8,51.6-15.7a6.46,6.46,0,0,1,1.9-.4A1.84,1.84,0,0,1,2032.11,332.3Z"></path><path class="cls-2" d="M1973.51,340a2,2,0,0,1-2.1-1.3,1.67,1.67,0,0,1,.9-2.1,5.64,5.64,0,0,1,1.2-.4l52.2-15.9a3.09,3.09,0,0,1,.8-.2,1.92,1.92,0,0,1,2.3,1.2,1.86,1.86,0,0,1-1.2,2.4c-.8.3-1.6.5-2.4.8-16.8,5.1-33.5,10.2-50.3,15.2C1974.41,339.8,1973.91,339.9,1973.51,340Z"></path><path class="cls-2" d="M1979.81,360.7c-1.2,0-1.9-.5-2.1-1.4a1.88,1.88,0,0,1,1-2.1,5.78,5.78,0,0,1,1.4-.5q26-7.95,51.9-15.7a6.11,6.11,0,0,1,1.3-.3,1.84,1.84,0,0,1,1.9,1.3,1.67,1.67,0,0,1-.9,2.1,5,5,0,0,1-1.3.5q-26,7.95-51.9,15.7A3.82,3.82,0,0,1,1979.81,360.7Z"></path><path class="cls-2" d="M1992,307.6l2.4-.8a6.85,6.85,0,0,1,2.2-.4,1.25,1.25,0,0,1,1.1,1,1.9,1.9,0,0,1-.1,1.3,1.55,1.55,0,0,1-1.1.8l-2.9.9.1.3a7.39,7.39,0,0,1,.2,3.3,20.23,20.23,0,0,1-1.5,4.3c.3-.2.7-.4,1-.6a10.91,10.91,0,0,1,1.1-.6,5.78,5.78,0,0,1,1.4-.5,23.35,23.35,0,0,1,3.2-.7,11,11,0,0,0,2.7-.6,5.82,5.82,0,0,0,1.9-1c.6-.4,1.1-.7,1.3-.8a1.63,1.63,0,0,1,1.5.2,2.34,2.34,0,0,1,1,1.2,2.37,2.37,0,0,1-.9,2.6,7.26,7.26,0,0,1-3.1,1.7,40.68,40.68,0,0,1-6.4.7h-.5a2.49,2.49,0,0,0-.8.1,6.15,6.15,0,0,0-1.1.3,2.73,2.73,0,0,0-1.2.6c-.3.2-.8.7-1.6,1.3a9.08,9.08,0,0,1-1.6,1.1,1.81,1.81,0,0,1-1.4-.2,2.37,2.37,0,0,1-1.1-1.3,1.1,1.1,0,0,1,0-.8,7.6,7.6,0,0,1,.4-1.1,11.9,11.9,0,0,1,1-1.7,5.23,5.23,0,0,0,.8-2.4,7.82,7.82,0,0,0-.2-2.7c-.1-.3-.3-.7-.6-1.4l-1.4.4a5.16,5.16,0,0,1-1.9.3,1.28,1.28,0,0,1-1-1c-.3-1.1.2-1.8,1.6-2.3l1-.3a13.52,13.52,0,0,1-2.1-3.8,7.4,7.4,0,0,1-.2-3.9,6.72,6.72,0,0,1,2-3.3,9.53,9.53,0,0,1,3.8-2.2,12.86,12.86,0,0,1,3.6-.6,7.27,7.27,0,0,1,6.3,4.5,1.84,1.84,0,0,1-.2,1.6,2.37,2.37,0,0,1-1.3,1.1,2.23,2.23,0,0,1-2.7-1.1,6.93,6.93,0,0,0-2.1-2.1,3,3,0,0,0-2.5-.1,3.31,3.31,0,0,0-2.1,1.7,3.39,3.39,0,0,0-.1,2.8,8.65,8.65,0,0,0,.7,1.7A8.05,8.05,0,0,0,1992,307.6Z"></path><g id="Group_830" data-name="Group 830"><path id="Path_2800" data-name="Path 2800" class="cls-2" d="M204,310.8a4.92,4.92,0,0,0-2.7-2.6l-8.5-3.5a4.75,4.75,0,0,0-3.7,0,4.61,4.61,0,0,0-2.6,2.7l-9.7,23.8V292.3a1.61,1.61,0,0,0-.6-1.3l-25-25a1.76,1.76,0,0,0-1.3-.6H78.49a1.9,1.9,0,0,0-1.9,1.9V282a1.9,1.9,0,1,0,3.8,0V269.2H148v23.1a1.9,1.9,0,0,0,1.9,1.9H173v46.3l-8.4,20.5a1.13,1.13,0,0,0-.1.8l.9,17.9a2,2,0,0,0,1.2,1.7,1.7,1.7,0,0,0,.7.1,2.11,2.11,0,0,0,1.3-.5l4.4-4.1v12.8H80.39V289.5a1.9,1.9,0,0,0-3.8,0v102a1.9,1.9,0,0,0,1.9,1.9h96.4a1.9,1.9,0,0,0,1.9-1.9V373.3l4.9-4.6a1.79,1.79,0,0,0,.5-.7l8.6-21.1a2,2,0,0,0-1-2.5h0a2,2,0,0,0-2.5,1l-7.9,19.3-10.6-4.3L185,320.7l10.6,4.3L190,338.7a2,2,0,0,0,1,2.5h0a2,2,0,0,0,2.5-1h0l10.6-25.8A5,5,0,0,0,204,310.8Zm-52.4-39,18.5,18.5h-18.5Zm16.7,92.8,8.6,3.5-8,7.4Zm32.2-51.5-3.5,8.6-10.6-4.3,3.5-8.6a.9.9,0,0,1,.6-.6,1.1,1.1,0,0,1,.8,0l8.5,3.5a.9.9,0,0,1,.6.6.78.78,0,0,1,.1.8Z"></path><path id="Path_2801" data-name="Path 2801" class="cls-2" d="M139.79,286.1h-23.6a1.9,1.9,0,0,0,0,3.8h23.6a1.9,1.9,0,0,0,1.9-1.9A2,2,0,0,0,139.79,286.1Z"></path><path id="Path_2802" data-name="Path 2802" class="cls-2" d="M91.09,327.8h15a1.9,1.9,0,0,0,1.9-1.9V312.4l2.8-3.6a1.92,1.92,0,1,0-3-2.4l-2,2.5H91a1.9,1.9,0,0,0-1.9,1.9v15a2.07,2.07,0,0,0,2,2Zm1.9-15h9.9l-3,3.9-2.1-2.1a2,2,0,0,0-2.7,0h0a2,2,0,0,0,0,2.7h0l3.6,3.6a1.76,1.76,0,0,0,1.3.6h.1a2.1,2.1,0,0,0,1.4-.7l2.7-3.4v6.7H93Z"></path><path id="Path_2803" data-name="Path 2803" class="cls-2" d="M160.09,311.9h-40.7a1.9,1.9,0,0,0,0,3.8h40.7a1.9,1.9,0,0,0,1.9-1.9h0a2,2,0,0,0-1.9-1.9Z"></path><path id="Path_2804" data-name="Path 2804" class="cls-2" d="M119.29,324.9H152a1.9,1.9,0,0,0,0-3.8h-32.7a1.9,1.9,0,0,0-1.9,1.9h0A2,2,0,0,0,119.29,324.9Z"></path><path id="Path_2805" data-name="Path 2805" class="cls-2" d="M89.19,350.9a1.9,1.9,0,0,0,1.9,1.9h15a1.9,1.9,0,0,0,1.9-1.9V337.4l2.8-3.6a1.92,1.92,0,1,0-3-2.4l-2,2.5H91a1.9,1.9,0,0,0-1.9,1.9ZM93,337.8h9.9l-3,3.9-2.1-2.1a1.91,1.91,0,0,0-2.7,2.7h0l3.6,3.6a1.76,1.76,0,0,0,1.3.6h.1a2.1,2.1,0,0,0,1.4-.7l2.7-3.4v6.7H93Z"></path><path id="Path_2806" data-name="Path 2806" class="cls-2" d="M160.09,336.9h-40.7a1.9,1.9,0,0,0,0,3.8h40.7a1.9,1.9,0,0,0,1.9-1.9,2,2,0,0,0-1.9-1.9Z"></path><path id="Path_2807" data-name="Path 2807" class="cls-2" d="M119.29,349.9h12.2a1.9,1.9,0,0,0,1.9-1.9,1.84,1.84,0,0,0-1.9-1.9h-12.2a1.9,1.9,0,0,0-1.9,1.9h0A2,2,0,0,0,119.29,349.9Z"></path><path id="Path_2808" data-name="Path 2808" class="cls-2" d="M89.19,375.9a1.9,1.9,0,0,0,1.9,1.9h15a1.9,1.9,0,0,0,1.9-1.9v-15a1.9,1.9,0,0,0-1.9-1.9h-15a1.9,1.9,0,0,0-1.9,1.9ZM93,362.8h11.2V374H93Z"></path><path id="Path_2809" data-name="Path 2809" class="cls-2" d="M162,363.8a1.9,1.9,0,0,0-1.9-1.9h-40.7a1.9,1.9,0,0,0,0,3.8h40.7a1.9,1.9,0,0,0,1.9-1.9Z"></path><path id="Path_2810" data-name="Path 2810" class="cls-2" d="M119.29,371.1a1.9,1.9,0,0,0,0,3.8h34.6a1.9,1.9,0,1,0,0-3.8Z"></path></g><path id="Path_2930" data-name="Path 2930" class="cls-2" d="M1417.81,528.6a47.67,47.67,0,0,0-1.1-13,40.09,40.09,0,0,0-39.4-32.6c-21.8.2-39.7,16.4-39.7,38.2,0,2-.1,4.3-.1,5.9v82.1c0,1.4,2.2,3.7,5.1.8l67.3-63.4C1417.31,539.9,1417.81,528.6,1417.81,528.6Zm-40.1,12.2a15.4,15.4,0,1,1,15.4-15.4,15.41,15.41,0,0,1-15.4,15.4Z"></path><path id="Path_2931" data-name="Path 2931" class="cls-2" d="M1407.11,611.4a10.7,10.7,0,1,1,10.7-10.7h0A10.71,10.71,0,0,1,1407.11,611.4Z"></path><path d="M10.15,507.94V482.05h8.74a14.74,14.74,0,0,1,6.2,1,8.29,8.29,0,0,1,4.55,7.76c0,4.8-2.66,9-10.08,9H16.48v8.12ZM19.31,494c2.66,0,4-.91,4-3.11s-1.29-3-4.23-3H16.48V494Z"></path><path d="M32.15,486.45v-4.4H38v4.4Zm0,21.49V488.52H38v19.42Z"></path><path d="M55.88,496a4.47,4.47,0,0,0-4.34-2.73c-2.66,0-4.48,2.2-4.48,4.93a4.63,4.63,0,0,0,4.62,4.93,4.44,4.44,0,0,0,4.2-2.59h5.91a10.43,10.43,0,0,1-20.58-2.37A10.39,10.39,0,0,1,61.75,496Z"></path><path d="M76,507.94l-5.5-9.34h-.07v9.34h-5.8V482.05h5.8v13.5h.07l5.39-7h6.89l-7.31,8.54,7.1,10.88Z"></path><path d="M112,507.94l-3.25-12.56h-.07l-3.25,12.56H100l-6-19.42h6l2.9,12.07h.07l3.19-12.07h4.89l3.22,12.07h.07l2.91-12.07h6l-6,19.42Z"></path><path d="M138.37,507.94V497.27c0-2.52-1-4-3.11-4S132,494.61,132,497v10.92H126.2V482.05H132v8.32a5.47,5.47,0,0,1,5-2.52c4.45,0,7.14,2.8,7.14,7.88v12.21Z"></path><path d="M162.9,507.94v-2.1h-.07c-.84,1.71-3.15,2.76-5.7,2.76-5.74,0-9.73-4.51-9.73-10.39s4.16-10.36,9.73-10.36a6.59,6.59,0,0,1,5.7,2.73h.07v-2.06h5.81v19.42Zm0-9.73a4.92,4.92,0,0,0-4.93-4.93,5,5,0,1,0,4.93,4.93Z"></path><path d="M174.27,507.94v-15H171.4v-4.41h2.87v-6.47h5.81v6.47h2.8v4.41h-2.8v15Z"></path><path d="M198.27,514.41l3.08-7.45-7.21-18.44h6.19l3.89,11.26h.07L208,488.52h6.15l-9.72,25.89Z"></path><path d="M225.14,508.53a10.32,10.32,0,1,1,10.46-10.39A10.15,10.15,0,0,1,225.14,508.53Zm4.65-10.32a4.66,4.66,0,1,0-4.65,4.9A4.78,4.78,0,0,0,229.79,498.21Z"></path><path d="M251.38,507.94v-2.07h-.07c-.84,1.79-2.38,2.7-5,2.7-4.1,0-7.49-2.45-7.49-8V488.52h5.81V499.4c0,2.55.91,3.74,3.11,3.74s3.33-1.47,3.33-3.85V488.52h5.8v19.42Z"></path><path d="M14.28,549.92V539.15c0-2.63-.91-3.85-3-3.85-2.34,0-3.32,1.29-3.32,3.92v10.7H2.1V530.5H7.52v2.07h.07a5.59,5.59,0,0,1,5.29-2.73c3.49,0,7.2,2,7.2,7.7v12.38Z"></path><path d="M28.9,542a4.34,4.34,0,0,0,4.55,3.67A4.06,4.06,0,0,0,37,543.83h6c-1.85,4.24-5.39,6.72-9.48,6.72a10.36,10.36,0,1,1,10.14-10.11,7.12,7.12,0,0,1-.14,1.54Zm8.89-3.92a4.36,4.36,0,0,0-4.45-3.32A4.3,4.3,0,0,0,29,538.06Z"></path><path d="M51.5,542a4.35,4.35,0,0,0,4.55,3.67,4.06,4.06,0,0,0,3.53-1.82h6c-1.85,4.24-5.39,6.72-9.48,6.72A10.36,10.36,0,1,1,66.2,540.44a7.81,7.81,0,0,1-.14,1.54Zm8.89-3.92a4.36,4.36,0,0,0-4.45-3.32,4.31,4.31,0,0,0-4.37,3.32Z"></path><path d="M84.11,549.92v-2.1H84c-1.09,1.79-3,2.73-5.81,2.73-5.88,0-9.73-4.51-9.73-10.39s4-10.32,9.63-10.32a7.51,7.51,0,0,1,5.7,2.31V524h5.81v25.89Zm0-9.8a4.92,4.92,0,1,0-5,5A4.87,4.87,0,0,0,84.14,540.12Z"></path><path d="M116.82,549.92V539.25c0-2.52-1-4-3.11-4s-3.26,1.29-3.26,3.71v10.91h-5.8V524h5.8v8.33c.84-1.58,2.73-2.52,5-2.52,4.45,0,7.14,2.8,7.14,7.87v12.21Z"></path><path d="M131.45,542a4.34,4.34,0,0,0,4.54,3.67,4.08,4.08,0,0,0,3.54-1.82h5.95c-1.86,4.24-5.39,6.72-9.49,6.72a10.36,10.36,0,1,1,10.15-10.11A7.12,7.12,0,0,1,146,542Zm8.88-3.92a4.58,4.58,0,0,0-8.81,0Z"></path><path d="M149.36,549.92V524h5.81v25.89Z"></path><path d="M159.37,556.39V530.5h5.45v2.14h.11a7.46,7.46,0,0,1,6.09-2.8c5.52,0,9.44,4.51,9.44,10.56,0,5.53-3.88,10.19-9.44,10.19a7.54,7.54,0,0,1-5.85-2.42v8.22Zm15.29-16.16a4.87,4.87,0,1,0-4.87,4.93A4.89,4.89,0,0,0,174.66,540.23Z"></path><path d="M210.62,549.92l-3.25-12.56h-.07L204,549.92h-5.38l-5.95-19.42h6l2.9,12.07h.07l3.18-12.07h4.9L213,542.57h.07L216,530.5h6l-6,19.42Z"></path><path d="M224.3,528.44V524h5.81v4.41Zm0,21.48V530.5h5.81v19.42Z"></path><path d="M235.64,549.92v-15h-2.87V530.5h2.87V524h5.8v6.47h2.8v4.41h-2.8v15Z"></path><path d="M258.94,549.92V539.25c0-2.52-1-4-3.12-4s-3.25,1.29-3.25,3.71v10.91h-5.81V524h5.81v8.33c.84-1.58,2.73-2.52,5-2.52,4.44,0,7.14,2.8,7.14,7.87v12.21Z"></path><path d="M605.94,507.94V482.05h14.13v5.8h-7.8v4.41h7.52v5.81h-7.52v9.87Z"></path><path d="M623.4,486.45v-4.4h5.8v4.4Zm0,21.49V488.52h5.8v19.42Z"></path><path d="M633.58,507.94V482.05h5.8v25.89Z"></path><path d="M643.58,507.94V482.05h5.81v25.89Z"></path><path d="M664.4,486.45v-4.4h5.81v4.4Zm0,21.49V488.52h5.81v19.42Z"></path><path d="M686.58,507.94V497.16c0-2.62-.91-3.85-3-3.85-2.35,0-3.33,1.3-3.33,3.92v10.71h-5.8V488.52h5.42v2.06h.07a5.59,5.59,0,0,1,5.28-2.73c3.5,0,7.21,2,7.21,7.7v12.39Z"></path><path d="M709.39,514.41l3.08-7.45-7.21-18.44h6.2l3.88,11.26h.07l3.71-11.26h6.16l-9.73,25.89Z"></path><path d="M736.26,508.53a10.32,10.32,0,1,1,10.47-10.39A10.15,10.15,0,0,1,736.26,508.53Zm4.66-10.32a4.66,4.66,0,1,0-4.66,4.9A4.78,4.78,0,0,0,740.92,498.21Z"></path><path d="M762.5,507.94v-2.07h-.07c-.84,1.79-2.38,2.7-5,2.7-4.09,0-7.49-2.45-7.49-8V488.52h5.81V499.4c0,2.55.91,3.74,3.11,3.74s3.33-1.47,3.33-3.85V488.52H768v19.42Z"></path><path d="M772.16,507.94V488.52h5.46v2.06h.07c1-2.06,2.62-2.73,4.86-2.73v5.85c-3.46,0-4.58,1.33-4.58,3.53v10.71Z"></path><path d="M810.4,507.94v-2.1h-.07c-1.08,1.78-3,2.73-5.81,2.73-5.88,0-9.72-4.52-9.72-10.39s4-10.33,9.62-10.33a7.55,7.55,0,0,1,5.7,2.31v-8.11h5.81v25.89Zm0-9.8a4.92,4.92,0,1,0-5,5A4.87,4.87,0,0,0,810.44,498.14Z"></path><path d="M824.81,500a4.35,4.35,0,0,0,4.55,3.68,4.1,4.1,0,0,0,3.54-1.82h5.94c-1.85,4.23-5.38,6.72-9.48,6.72a10.36,10.36,0,1,1,10.15-10.11,7.64,7.64,0,0,1-.14,1.53Zm8.89-3.91a4.59,4.59,0,0,0-8.82,0Z"></path><path d="M843.88,507.94v-15H841v-4.41h2.87v-6.47h5.81v6.47h2.8v4.41h-2.8v15Z"></path><path d="M869.07,507.94v-2.1H869c-.84,1.71-3.15,2.76-5.7,2.76-5.74,0-9.73-4.51-9.73-10.39s4.17-10.36,9.73-10.36a6.59,6.59,0,0,1,5.7,2.73h.07v-2.06h5.81v19.42Zm0-9.73a4.92,4.92,0,0,0-4.93-4.93,5,5,0,1,0,4.93,4.93Z"></path><path d="M879.11,486.45v-4.4h5.81v4.4Zm0,21.49V488.52h5.81v19.42Z"></path><path d="M889.29,507.94V482.05h5.81v25.89Z"></path><path d="M907.56,494c0-1.12-.84-1.47-1.79-1.47s-1.68.56-1.68,1.29c0,1.05.95,1.58,3.64,2.28,4.62,1.22,6.13,3.07,6.13,5.91,0,4.06-3.5,6.61-7.91,6.61s-7.49-2.48-7.91-6.44h5.77A2,2,0,0,0,906,504c1,0,2-.6,2-1.51,0-1.08-.67-1.64-3.57-2.55-4.9-1.5-6.19-3.43-6.19-5.7,0-3.85,3.6-6.34,7.52-6.34,4.2,0,7.17,2.31,7.45,6.13Z"></path><path d="M1883.46,507.94l-6-8.37h-.07v8.37h-6.34V482.05h8.47a16.07,16.07,0,0,1,6.12.94,8.56,8.56,0,0,1,4.76,8c0,4.09-2.45,7.45-6.44,8.15l7,8.82Zm-3.61-12.88c2.63,0,4.24-1.22,4.24-3.71,0-2.24-1.68-3.5-4.17-3.5h-2.51v7.21Z"></path><path d="M1898.36,500a4.35,4.35,0,0,0,4.55,3.68,4.07,4.07,0,0,0,3.53-1.82h6c-1.85,4.23-5.39,6.72-9.48,6.72a10.36,10.36,0,1,1,10.15-10.11,7.64,7.64,0,0,1-.14,1.53Zm8.89-3.91a4.59,4.59,0,0,0-8.82,0Z"></path><path d="M1930,496a4.46,4.46,0,0,0-4.34-2.73c-2.66,0-4.48,2.2-4.48,4.93a4.63,4.63,0,0,0,4.62,4.93,4.43,4.43,0,0,0,4.2-2.59h5.91a10.43,10.43,0,0,1-20.57-2.37,10.39,10.39,0,0,1,20.54-2.17Z"></path><path d="M1943.77,500a4.35,4.35,0,0,0,4.55,3.68,4.1,4.1,0,0,0,3.54-1.82h6c-1.86,4.23-5.39,6.72-9.49,6.72a10.36,10.36,0,1,1,10.15-10.11,7,7,0,0,1-.14,1.53Zm8.89-3.91a4.58,4.58,0,0,0-8.81,0Z"></path><path d="M1961.69,486.45v-4.4h5.81v4.4Zm0,21.49V488.52h5.81v19.42Z"></path><path d="M1977.15,507.94l-7-19.42h6l3.71,12.1h.07l3.71-12.1h6l-7,19.42Z"></path><path d="M1996.4,500a4.34,4.34,0,0,0,4.54,3.68,4.1,4.1,0,0,0,3.54-1.82h6c-1.86,4.23-5.39,6.72-9.49,6.72a10.36,10.36,0,1,1,10.15-10.11A7,7,0,0,1,2011,500Zm8.88-3.91a4.58,4.58,0,0,0-8.81,0Z"></path><path d="M2039.54,514.41v-8.47h-.07a6.88,6.88,0,0,1-5.88,2.63c-5.43,0-9.38-4.41-9.38-10,0-6.16,4-10.75,9.73-10.75a6.48,6.48,0,0,1,5.77,2.8h.07v-2.13h5.56v25.89Zm.21-16.16a4.91,4.91,0,0,0-4.94-5,4.93,4.93,0,0,0,.07,9.86A4.86,4.86,0,0,0,2039.75,498.25Z"></path><path d="M2062,507.94v-2.07H2062c-.84,1.79-2.38,2.7-5,2.7-4.1,0-7.49-2.45-7.49-8V488.52h5.81V499.4c0,2.55.91,3.74,3.11,3.74s3.33-1.47,3.33-3.85V488.52h5.8v19.42Z"></path><path d="M2081.27,508.53a10.32,10.32,0,1,1,10.47-10.39A10.15,10.15,0,0,1,2081.27,508.53Zm4.66-10.32a4.66,4.66,0,1,0-4.66,4.9A4.78,4.78,0,0,0,2085.93,498.21Z"></path><path d="M2095.65,507.94v-15h-2.87v-4.41h2.87v-6.47h5.81v6.47h2.8v4.41h-2.8v15Z"></path><path d="M2110.94,500a4.35,4.35,0,0,0,4.55,3.68,4.07,4.07,0,0,0,3.53-1.82H2125c-1.85,4.23-5.38,6.72-9.48,6.72a10.36,10.36,0,1,1,10.15-10.11,7.64,7.64,0,0,1-.14,1.53Zm8.89-3.91a4.59,4.59,0,0,0-8.82,0Z"></path><path d="M2137.11,494c0-1.12-.84-1.47-1.78-1.47s-1.68.56-1.68,1.29c0,1.05.94,1.58,3.64,2.28,4.62,1.22,6.12,3.07,6.12,5.91,0,4.06-3.5,6.61-7.91,6.61s-7.48-2.48-7.9-6.44h5.77a2,2,0,0,0,2.2,1.79c1,0,2-.6,2-1.51,0-1.08-.66-1.64-3.57-2.55-4.89-1.5-6.19-3.43-6.19-5.7,0-3.85,3.6-6.34,7.52-6.34,4.2,0,7.18,2.31,7.46,6.13Z"></path><path d="M1306.41,272.79a13.79,13.79,0,0,1-27.57.21c0-7.84,6.33-13.33,13.85-13.33,5.84,0,11.48,3.95,13,9.17h-7.42a6.34,6.34,0,0,0-5.7-3.36c-4.17,0-7.07,3.36-7.07,7.52s2.73,7.77,7.1,7.77c3.08,0,5.39-1.51,6.2-4.17H1291v-5.28h15.4Z"></path><path d="M1319.14,286.64a10.32,10.32,0,1,1,10.46-10.39A10.15,10.15,0,0,1,1319.14,286.64Zm4.66-10.32a4.66,4.66,0,1,0-4.66,4.9A4.78,4.78,0,0,0,1323.8,276.32Z"></path><path d="M1358.4,286.05V284h-.07c-1.09,1.79-3,2.73-5.81,2.73-5.88,0-9.73-4.51-9.73-10.39s4-10.32,9.62-10.32a7.55,7.55,0,0,1,5.71,2.31v-8.12h5.81v25.89Zm0-9.8a4.92,4.92,0,1,0-5,5A4.87,4.87,0,0,0,1358.43,276.25Z"></path><path d="M1368.12,264.57v-4.41h5.81v4.41Zm0,21.48V266.63h5.81v19.42Z"></path><path d="M1378.1,286.05V266.63h5.45v2.07h.07c1-2.07,2.63-2.73,4.87-2.73v5.84c-3.47,0-4.59,1.33-4.59,3.53v10.71Z"></path><path d="M1395.24,278.11a4.34,4.34,0,0,0,4.55,3.67,4.06,4.06,0,0,0,3.53-1.82h6c-1.86,4.24-5.39,6.72-9.48,6.72a10.36,10.36,0,1,1,10.14-10.11,7.12,7.12,0,0,1-.14,1.54Zm8.89-3.92a4.35,4.35,0,0,0-4.45-3.32,4.29,4.29,0,0,0-4.37,3.32Z"></path><path d="M1426.87,274.12a4.47,4.47,0,0,0-4.34-2.73c-2.66,0-4.48,2.2-4.48,4.93a4.63,4.63,0,0,0,4.62,4.94,4.44,4.44,0,0,0,4.2-2.59h5.91a10.43,10.43,0,0,1-20.57-2.38A10.19,10.19,0,0,1,1422.39,266a10.3,10.3,0,0,1,10.36,8.15Z"></path><path d="M1437.12,286.05V271h-2.87v-4.41h2.87v-6.47h5.81v6.47h2.79V271h-2.79v15Z"></path><path d="M1460.21,286.05V271h-2.87v-4.41h2.87v-6.47H1466v6.47h2.8V271H1466v15Z"></path><path d="M1480.36,286.64a10.32,10.32,0,1,1,10.46-10.39A10.15,10.15,0,0,1,1480.36,286.64Zm4.66-10.32a4.66,4.66,0,1,0-4.66,4.9A4.78,4.78,0,0,0,1485,276.32Z"></path><path d="M1312,334.51V308.62h5.45v2.13h.11a7.49,7.49,0,0,1,6.09-2.8c5.53,0,9.44,4.51,9.44,10.57,0,5.53-3.88,10.18-9.44,10.18a7.57,7.57,0,0,1-5.85-2.41v8.22Zm15.29-16.17a4.87,4.87,0,1,0-4.87,4.94A4.89,4.89,0,0,0,1327.28,318.34Z"></path><path d="M1336.34,328V308.62h5.46v2.06h.06c1-2.06,2.63-2.73,4.87-2.73v5.84c-3.46,0-4.58,1.33-4.58,3.54V328Z"></path><path d="M1358.35,328.63a10.32,10.32,0,1,1,10.46-10.39A10.16,10.16,0,0,1,1358.35,328.63Zm4.65-10.32a4.66,4.66,0,1,0-4.65,4.9A4.78,4.78,0,0,0,1363,318.31Z"></path><path d="M1376.85,328l-7-19.41h6l3.71,12.1h.07l3.71-12.1h6l-7,19.41Z"></path><path d="M1392.11,306.55v-4.41h5.81v4.41Zm0,21.48V308.62h5.81V328Z"></path><path d="M1416.81,328v-2.1h-.07c-1.09,1.79-3,2.73-5.81,2.73-5.88,0-9.73-4.51-9.73-10.39s4-10.32,9.63-10.32a7.58,7.58,0,0,1,5.7,2.31v-8.12h5.81V328Zm0-9.79a4.92,4.92,0,1,0-5,5A4.86,4.86,0,0,0,1416.84,318.24Z"></path><path d="M1431.22,320.09a4.35,4.35,0,0,0,4.55,3.68,4.1,4.1,0,0,0,3.54-1.82h5.94c-1.85,4.23-5.39,6.71-9.48,6.71a10.36,10.36,0,1,1,10.15-10.11,7.74,7.74,0,0,1-.14,1.54Zm8.89-3.92a4.59,4.59,0,0,0-8.82,0Z"></path><path d="M1449.1,328V308.62h5.46v2.06h.07c1-2.06,2.62-2.73,4.86-2.73v5.84c-3.46,0-4.58,1.33-4.58,3.54V328Z"></path><path d="M1261.34,710.58l-6-8.36h-.07v8.36H1249V684.69h8.47a16.11,16.11,0,0,1,6.12.94,8.56,8.56,0,0,1,4.76,8c0,4.09-2.45,7.45-6.44,8.15l7,8.82Zm-3.6-12.88c2.62,0,4.23-1.22,4.23-3.71,0-2.24-1.68-3.5-4.16-3.5h-2.52v7.21Z"></path><path d="M1276.25,702.64a4.34,4.34,0,0,0,4.55,3.67,4.09,4.09,0,0,0,3.53-1.82h6c-1.86,4.23-5.39,6.72-9.48,6.72a10.36,10.36,0,1,1,10.14-10.11,7.12,7.12,0,0,1-.14,1.54Zm8.88-3.92a4.58,4.58,0,0,0-8.81,0Z"></path><path d="M1308.58,717.05v-8.47h-.07a6.88,6.88,0,0,1-5.88,2.63c-5.43,0-9.38-4.41-9.38-10,0-6.16,4-10.75,9.73-10.75a6.48,6.48,0,0,1,5.77,2.8h.07v-2.13h5.56v25.89Zm.21-16.16a4.91,4.91,0,0,0-4.94-5,4.93,4.93,0,0,0,.07,9.86A4.86,4.86,0,0,0,1308.79,700.89Z"></path><path d="M1331.07,710.58v-2.07H1331c-.84,1.79-2.38,2.7-5,2.7-4.09,0-7.49-2.45-7.49-8V691.16h5.81V702c0,2.55.91,3.74,3.11,3.74s3.33-1.46,3.33-3.84V691.16h5.81v19.42Z"></path><path d="M1345.45,702.64a4.35,4.35,0,0,0,4.55,3.67,4.09,4.09,0,0,0,3.53-1.82h6c-1.85,4.23-5.39,6.72-9.48,6.72a10.36,10.36,0,1,1,10.15-10.11,7.81,7.81,0,0,1-.14,1.54Zm8.89-3.92a4.59,4.59,0,0,0-8.82,0Z"></path><path d="M1371.62,696.62c0-1.12-.84-1.47-1.78-1.47s-1.68.56-1.68,1.29c0,1,.94,1.58,3.64,2.28,4.62,1.22,6.12,3.08,6.12,5.91,0,4.06-3.5,6.61-7.91,6.61s-7.49-2.48-7.91-6.44h5.78a2,2,0,0,0,2.2,1.79c1,0,2-.6,2-1.51,0-1.08-.66-1.64-3.57-2.55-4.89-1.5-6.19-3.43-6.19-5.7,0-3.85,3.6-6.34,7.52-6.34,4.2,0,7.18,2.31,7.46,6.13Z"></path><path d="M1382,710.58v-15h-2.87v-4.41H1382v-6.47h5.81v6.47h2.8v4.41h-2.8v15Z"></path><path d="M1418.33,717.05v-8.47h-.07a6.87,6.87,0,0,1-5.88,2.63c-5.42,0-9.38-4.41-9.38-10,0-6.16,4-10.75,9.73-10.75a6.47,6.47,0,0,1,5.77,2.8h.07v-2.13h5.57v25.89Zm.21-16.16a4.91,4.91,0,0,0-4.93-5,4.93,4.93,0,1,0,4.93,5Z"></path><path d="M1440.83,710.58v-2.07h-.07c-.84,1.79-2.38,2.7-5,2.7-4.09,0-7.48-2.45-7.48-8V691.16h5.8V702c0,2.55.91,3.74,3.12,3.74s3.32-1.46,3.32-3.84V691.16h5.81v19.42Z"></path><path d="M1460.07,711.17a10.32,10.32,0,1,1,10.46-10.39A10.15,10.15,0,0,1,1460.07,711.17Zm4.65-10.32a4.66,4.66,0,1,0-4.65,4.9A4.78,4.78,0,0,0,1464.72,700.85Z"></path><path d="M1474.45,710.58v-15h-2.87v-4.41h2.87v-6.47h5.81v6.47h2.79v4.41h-2.79v15Z"></path><path d="M1489.74,702.64a4.34,4.34,0,0,0,4.55,3.67,4.1,4.1,0,0,0,3.53-1.82h6c-1.86,4.23-5.39,6.72-9.48,6.72a10.36,10.36,0,1,1,10.14-10.11,7.12,7.12,0,0,1-.14,1.54Zm8.88-3.92a4.58,4.58,0,0,0-8.81,0Z"></path><path d="M1515.91,696.62c0-1.12-.84-1.47-1.79-1.47s-1.68.56-1.68,1.29c0,1,1,1.58,3.64,2.28,4.62,1.22,6.13,3.08,6.13,5.91,0,4.06-3.5,6.61-7.91,6.61s-7.49-2.48-7.91-6.44h5.77a2,2,0,0,0,2.21,1.79c1,0,2-.6,2-1.51,0-1.08-.67-1.64-3.57-2.55-4.9-1.5-6.19-3.43-6.19-5.7,0-3.85,3.6-6.34,7.52-6.34,4.2,0,7.17,2.31,7.45,6.13Z"></path><path d="M1321.59,752.56v-15h-2.17v-4.41h2.17v-.8c0-3.22,1.26-6.16,7.45-6.16h.81v4.37h-.21c-1.51,0-2.24.39-2.24,2v.59h2.45v4.41h-2.45v15Z"></path><path d="M1332.33,752.56V733.14h5.46v2.07h.07c1-2.07,2.62-2.73,4.86-2.73v5.84c-3.46,0-4.58,1.33-4.58,3.54v10.7Z"></path><path d="M1354.34,753.16a10.33,10.33,0,1,1,10.46-10.39A10.16,10.16,0,0,1,1354.34,753.16Zm4.65-10.32a4.66,4.66,0,1,0-4.65,4.89A4.78,4.78,0,0,0,1359,742.84Z"></path><path d="M1392.09,752.56V742.1c0-3-1-4.16-3-4.16-2.21,0-3.22,1.33-3.22,3.88v10.74h-5.81v-10.7c0-2.52-.91-3.92-2.9-3.92-2.28,0-3.29,1.47-3.29,4.16v10.46h-5.81V733.14h5.42v2.07h.07c1-1.82,2.87-2.73,5.36-2.73a6.13,6.13,0,0,1,5.59,3.46,7,7,0,0,1,6.16-3.46c4.34,0,7.21,2.66,7.21,8.08v12Z"></path><path d="M1425.29,752.56V750.5h-.07c-.84,1.78-2.38,2.69-5,2.69-4.09,0-7.49-2.45-7.49-8V733.14h5.81V744c0,2.55.91,3.74,3.11,3.74s3.33-1.47,3.33-3.85V733.14h5.81v19.42Z"></path><path d="M1443.24,738.6c0-1.12-.84-1.47-1.78-1.47s-1.68.56-1.68,1.3c0,1.05.94,1.57,3.64,2.27,4.61,1.23,6.12,3.08,6.12,5.91,0,4.06-3.5,6.62-7.91,6.62s-7.49-2.49-7.91-6.44h5.78a2,2,0,0,0,2.2,1.78c1,0,2-.59,2-1.5,0-1.09-.66-1.65-3.57-2.55-4.9-1.51-6.19-3.43-6.19-5.71,0-3.85,3.6-6.33,7.52-6.33,4.2,0,7.17,2.31,7.45,6.12Z"></path></svg> 