<?xml version="1.0" encoding="utf-8"?>
<!-- Generator: Adobe Illustrator 23.0.4, SVG Export Plug-In . SVG Version: 6.00 Build 0)  -->
<svg version="1.1" id="Layer_1" xmlns="http://www.w3.org/2000/svg" xmlns:xlink="http://www.w3.org/1999/xlink" x="0px" y="0px"
	 viewBox="0 0 65.1 78.1" style="enable-background:new 0 0 65.1 78.1;" xml:space="preserve">
<style type="text/css">
	.st0{clip-path:url(#SVGID_2_);fill:url(#SVGID_3_);}
</style>
<g>
	<defs>
		<rect id="SVGID_1_" width="65.1" height="78.1"/>
	</defs>
	<clipPath id="SVGID_2_">
		<use xlink:href="#SVGID_1_"  style="overflow:visible;"/>
	</clipPath>
	
		<linearGradient id="SVGID_3_" gradientUnits="userSpaceOnUse" x1="-76.2609" y1="-116.774" x2="30.642" y2="68.3873" gradientTransform="matrix(1 0 0 -1 0 78.5512)">
		<stop  offset="0" style="stop-color:#E73446"/>
		<stop  offset="1" style="stop-color:#E61D5C"/>
	</linearGradient>
	<path class="st0" d="M62.4,73.3c0.6-6.6-0.3-13.4-1.7-20.5c-5.3-29.6-32-51.5-62-51.3c-34.3,0.3-62.6,25.8-62.6,60.2
		c0,3.2-0.1,6.8-0.1,9.3v2.4c0,7.3,0,11.8,0,19.8c0,1.7,0,4.4,0,6v101.2c0,2.3,3.4,5.9,8.1,1.4l106.1-100
		C61.5,91.2,62.4,73.3,62.4,73.3z M-0.9,92.7c-13.4,0-24.2-10.8-24.2-24.2s10.8-24.2,24.2-24.2s24.2,10.8,24.2,24.2
		S12.5,92.7-0.9,92.7z"/>
</g>
</svg>
