<?xml version="1.0" encoding="utf-8"?>
<!-- Generator: Adobe Illustrator 23.0.4, SVG Export Plug-In . SVG Version: 6.00 Build 0)  -->
<svg version="1.1" id="Layer_1" xmlns="http://www.w3.org/2000/svg" xmlns:xlink="http://www.w3.org/1999/xlink" x="0px" y="0px"
	 viewBox="0 0 124.7 200" style="enable-background:new 0 0 124.7 200;" xml:space="preserve">
<style type="text/css">
	.st0{fill:#FFFFFF;}
</style>
<path class="st0" d="M118.2,75.5c0.5-5.9-0.3-11.9-1.5-18.2C112,31,88.3,11.5,61.6,11.7C31.1,11.9,6,34.6,6,65.2
	c0,2.8-0.1,6-0.1,8.3v2.1c0,6.5,0,10.5,0,17.6c0,1.5,0,3.9,0,5.3v89.9c0,2,3,5.2,7.2,1.2l94.2-88.8
	C117.4,91.3,118.2,75.5,118.2,75.5z M62,92.7c-11.9,0-21.5-9.6-21.5-21.5c0-11.9,9.6-21.5,21.5-21.5s21.5,9.6,21.5,21.5
	C83.5,83.1,73.9,92.7,62,92.7z"/>
<path class="st0" d="M103.2,191.6c-8.3,0-15-6.7-15-15c0-8.3,6.7-15,15-15s15,6.7,15,15C118.2,184.9,111.4,191.6,103.2,191.6z"/>
</svg>
