<?xml version="1.0" encoding="utf-8"?>
<!-- Generator: Adobe Illustrator 23.0.3, SVG Export Plug-In . SVG Version: 6.00 Build 0)  -->
<svg version="1.1" id="Layer_1" xmlns="http://www.w3.org/2000/svg" xmlns:xlink="http://www.w3.org/1999/xlink" x="0px" y="0px"
	 viewBox="0 0 1000 247.65" style="enable-background:new 0 0 1000 247.65;" xml:space="preserve">
<style type="text/css">
	.st0{fill:url(#SVGID_1_);}
	.st1{fill:#002A3A;}
</style>
<g>
	<linearGradient id="SVGID_1_" gradientUnits="userSpaceOnUse" x1="108.7206" y1="228.899" x2="211.9957" y2="50.0212">
		<stop  offset="0" style="stop-color:#E73446"/>
		<stop  offset="1" style="stop-color:#E61D5C"/>
	</linearGradient>
	<path class="st0" d="M181.87,41.96c-2.37,0-4.7,0.14-7,0.4c-0.3,0.03-0.6,0.07-0.9,0.11c-25.77,3.38-46.42,23.04-51.27,48.32
		c0,0,0,0,0,0.01c-0.31,1.62-0.55,3.25-0.73,4.91c0,0.01,0,0.02,0,0.03c-0.23,2.12-0.34,4.28-0.34,6.47c0,1.16,0.03,2.32,0.1,3.46
		c-0.01,0.63-0.03,1.24-0.03,1.82c-0.01,0.64-0.02,1.24-0.02,1.79v125.25c0,2.14,3.23,5.63,7.69,1.27l92.29-88.35
		c0.12-0.1,0.23-0.2,0.35-0.31c1.06-0.95,2.09-1.94,3.08-2.96c7.23-7.44,12.56-16.74,15.19-27.12c1.21-4.76,1.85-9.74,1.85-14.87
		C242.12,68.93,215.14,41.96,181.87,41.96z M181.49,127.49c-14.41,0-26.1-11.68-26.1-26.1s11.68-26.1,26.1-26.1
		s26.1,11.68,26.1,26.1S195.91,127.49,181.49,127.49z"/>
	<path class="st1" d="M331.18,47.19h35.85v118.76H332.5v-9.46c-1.47,1.03-3.15,2.24-5.05,3.63c-1.91,1.39-4.18,2.68-6.81,3.84
		c-2.64,1.18-5.69,2.2-9.13,3.08c-3.45,0.88-7.37,1.32-11.77,1.32c-1.91,0-4.14-0.15-6.7-0.44c-2.57-0.29-5.36-0.92-8.36-1.87
		c-3.01-0.95-6.2-2.38-9.57-4.28s-6.81-4.47-10.34-7.7c-1.75-1.46-3.81-3.59-6.15-6.37c-2.35-2.79-4.62-6.16-6.82-10.12
		c-2.19-3.96-4.06-8.5-5.6-13.64c-1.54-5.14-2.31-10.92-2.31-17.38c0-1.75,0.15-4.03,0.44-6.81c0.29-2.78,0.88-5.9,1.76-9.35
		c0.88-3.45,2.16-7.11,3.85-11c1.68-3.89,3.99-7.81,6.92-11.77c5.42-7.04,12.02-12.61,19.79-16.72c7.78-4.1,16.13-6.15,25.07-6.15
		c3.81,0,7.26,0.37,10.34,1.1c3.08,0.73,5.83,1.58,8.25,2.52c2.41,0.96,4.54,1.98,6.37,3.08s3.33,2.09,4.51,2.97V47.19z
		 M295.95,131.53c3.32,1.39,6.73,2.09,10.27,2.09c3.68,0,7.17-0.73,10.48-2.2c3.32-1.46,6.18-3.4,8.61-5.82
		c2.44-2.42,4.35-5.25,5.74-8.47c1.4-3.22,2.1-6.74,2.1-10.56c0-3.66-0.73-7.15-2.21-10.45c-1.47-3.29-3.42-6.15-5.85-8.58
		c-2.43-2.42-5.3-4.32-8.6-5.71c-3.32-1.39-6.81-2.09-10.49-2.09c-3.68,0-7.18,0.73-10.49,2.2c-3.32,1.47-6.18,3.4-8.61,5.82
		c-2.44,2.42-4.34,5.28-5.74,8.58c-1.4,3.3-2.1,6.79-2.1,10.45c0,3.52,0.7,6.93,2.1,10.23c1.4,3.3,3.42,6.2,6.07,8.69
		C289.73,128.2,292.64,130.14,295.95,131.53z"/>
	<path class="st1" d="M452.45,90.95c-0.15-0.29-0.54-0.86-1.2-1.72s-1.36-1.65-2.09-2.38c-1.17-1.14-3.26-2.58-6.27-4.31
		c-3.01-1.72-6.92-2.58-11.77-2.58c-1.03,0-2.49,0.11-4.39,0.33c-1.91,0.22-4.11,0.91-6.6,2.08c-1.17,0.44-2.64,1.21-4.39,2.3
		c-1.76,1.1-3.48,2.63-5.17,4.61c-1.69,1.97-3.15,4.34-4.4,7.12c-1.25,2.77-1.86,5.99-1.86,9.64c0,3.8,0.69,7.34,2.08,10.62
		s3.3,6.13,5.72,8.54c2.42,2.41,5.27,4.31,8.58,5.7c3.3,1.39,6.85,2.08,10.67,2.08c3.37,0,6.27-0.44,8.69-1.32
		c2.41-0.88,4.5-1.98,6.26-3.29c1.76-1.32,3.19-2.68,4.29-4.07s2.01-2.6,2.74-3.63h37.83c-0.15,0.44-0.4,1.32-0.77,2.64
		c-0.37,1.32-0.88,2.86-1.54,4.62c-0.66,1.75-1.43,3.62-2.31,5.6c-0.87,1.98-1.83,3.85-2.85,5.61c-1.32,2.19-3.41,4.94-6.27,8.25
		c-2.85,3.3-6.45,6.48-10.78,9.57c-4.33,3.08-9.49,5.72-15.5,7.92c-6.02,2.2-12.84,3.3-20.46,3.3c-2.19,0-5.49-0.26-9.9-0.77
		c-4.39-0.51-9.24-1.94-14.52-4.29c-5.69-2.49-10.83-5.71-15.42-9.68c-4.59-3.95-8.49-8.47-11.69-13.52
		c-3.21-5.06-5.69-10.45-7.43-16.17c-1.75-5.72-2.62-11.58-2.62-17.6c0-4.98,0.47-9.38,1.42-13.19s1.71-6.53,2.3-8.14
		c2.19-6.01,5.21-11.51,9.07-16.49c3.87-4.99,8.35-9.24,13.45-12.76c5.1-3.52,10.69-6.27,16.77-8.25
		c6.09-1.98,12.43-2.97,19.02-2.97c10.56,0,20.53,2.53,29.92,7.59c9.38,5.06,16.86,12.21,22.43,21.44c1.46,2.2,2.71,4.47,3.73,6.82
		c1.03,2.35,2.27,5.93,3.74,10.78H452.45z"/>
	<path class="st1" d="M528.68,10.68v27.05h-35.85V10.68H528.68z M528.68,47.19v118.76h-35.85V47.19H528.68z"/>
	<path class="st1" d="M617.66,47.19h35.85v118.76h-34.53v-9.46c-1.47,1.03-3.15,2.24-5.06,3.63c-1.91,1.39-4.17,2.68-6.81,3.84
		c-2.64,1.18-5.69,2.2-9.13,3.08c-3.45,0.88-7.37,1.32-11.77,1.32c-1.91,0-4.14-0.15-6.71-0.44c-2.57-0.29-5.35-0.92-8.36-1.87
		c-3.01-0.95-6.19-2.38-9.57-4.28c-3.37-1.91-6.81-4.47-10.34-7.7c-1.76-1.46-3.81-3.59-6.16-6.37c-2.35-2.79-4.61-6.16-6.81-10.12
		c-2.2-3.96-4.07-8.5-5.61-13.64c-1.53-5.14-2.3-10.92-2.3-17.38c0-1.75,0.14-4.03,0.44-6.81c0.29-2.78,0.88-5.9,1.75-9.35
		c0.88-3.45,2.16-7.11,3.85-11c1.69-3.89,3.99-7.81,6.93-11.77c5.42-7.04,12.02-12.61,19.79-16.72c7.77-4.1,16.12-6.15,25.07-6.15
		c3.81,0,7.26,0.37,10.34,1.1c3.08,0.73,5.82,1.58,8.25,2.52c2.42,0.96,4.54,1.98,6.38,3.08c1.83,1.1,3.33,2.09,4.5,2.97V47.19z
		 M582.43,131.53c3.31,1.39,6.73,2.09,10.26,2.09c3.68,0,7.17-0.73,10.49-2.2c3.32-1.46,6.18-3.4,8.61-5.82
		c2.43-2.42,4.34-5.25,5.74-8.47c1.39-3.22,2.1-6.74,2.1-10.56c0-3.66-0.74-7.15-2.21-10.45c-1.47-3.29-3.43-6.15-5.85-8.58
		c-2.43-2.42-5.3-4.32-8.61-5.71c-3.32-1.39-6.81-2.09-10.49-2.09s-7.17,0.73-10.49,2.2c-3.31,1.47-6.18,3.4-8.61,5.82
		c-2.43,2.42-4.34,5.28-5.74,8.58c-1.39,3.3-2.09,6.79-2.09,10.45c0,3.52,0.7,6.93,2.09,10.23c1.4,3.3,3.43,6.2,6.08,8.69
		C576.21,128.2,579.11,130.14,582.43,131.53z"/>
	<path class="st1" d="M690.53,165.94H656V10.68h35.85v43.99c1.17-0.88,2.65-1.87,4.42-2.97s3.87-2.12,6.29-3.08
		c2.43-0.95,5.22-1.79,8.39-2.52s6.67-1.1,10.49-1.1c8.1,0,15.76,1.69,22.98,5.05c5.38,2.49,10.23,5.76,14.53,9.79
		c4.29,4.03,7.94,8.55,10.92,13.53c2.99,4.99,5.28,10.38,6.89,16.17c1.6,5.8,2.41,11.62,2.41,17.48c0,1.76-0.15,4.36-0.44,7.81
		c-0.3,3.45-1.18,7.44-2.64,11.99c-2.93,8.8-7.7,16.82-14.3,24.08c-6.59,7.26-14.37,12.35-23.31,15.28
		c-1.17,0.44-3.12,0.95-5.82,1.54c-2.72,0.59-5.91,0.88-9.57,0.88c-4.25,0-8.1-0.44-11.55-1.32c-3.44-0.88-6.48-1.94-9.13-3.19
		c-2.64-1.24-4.94-2.52-6.92-3.84c-1.98-1.32-3.63-2.49-4.95-3.52V165.94z M741.89,117.01c1.39-3.29,2.09-6.7,2.09-10.23
		c0-3.66-0.74-7.15-2.2-10.45c-1.47-3.29-3.41-6.15-5.83-8.58c-2.41-2.42-5.27-4.32-8.58-5.71c-3.3-1.39-6.79-2.09-10.45-2.09
		c-3.81,0-7.34,0.7-10.56,2.09c-3.23,1.39-6.02,3.29-8.36,5.71c-2.35,2.42-4.22,5.28-5.61,8.58c-1.39,3.3-2.09,6.79-2.09,10.45
		c0,3.81,0.7,7.34,2.09,10.56c1.39,3.23,3.3,6.05,5.72,8.47c2.41,2.42,5.27,4.33,8.58,5.71c3.3,1.39,6.78,2.09,10.45,2.09
		c1.61,0,4.29-0.44,8.03-1.32c3.74-0.88,7.37-3.08,10.89-6.59C738.55,123.21,740.5,120.31,741.89,117.01z"/>
	<path class="st1" d="M817.04,10.68v155.27h-35.85V10.68H817.04z"/>
	<path class="st1" d="M853.15,118.66c0.15,0.3,0.62,1.25,1.43,2.86c0.81,1.61,1.72,3.08,2.75,4.4c2.93,3.81,6.52,6.7,10.78,8.69
		c4.25,1.98,8.72,2.97,13.42,2.97c2.64,0,5.35-0.33,8.14-0.99s5.2-1.72,7.26-3.19c0.73-0.44,1.39-0.88,1.98-1.32
		c0.59-0.44,1.47-1.24,2.64-2.42h36.73c-1.17,2.49-2.71,5.61-4.62,9.35c-1.91,3.73-5.14,7.81-9.68,12.21
		c-1.61,1.61-3.63,3.4-6.04,5.38c-2.42,1.98-5.39,3.85-8.91,5.61c-3.51,1.75-7.55,3.26-12.1,4.5c-4.54,1.25-9.68,1.87-15.39,1.87
		c-1.91,0-4.33-0.15-7.26-0.44c-2.93-0.29-6.15-0.92-9.68-1.87c-3.51-0.95-7.26-2.34-11.22-4.17c-3.95-1.83-7.92-4.36-11.88-7.59
		c-7.04-5.71-12.54-12.79-16.49-21.22c-3.96-8.43-5.94-17.26-5.94-26.5c0-1.9,0.15-4.28,0.44-7.15c0.29-2.86,0.92-6.04,1.87-9.57
		c0.95-3.52,2.38-7.22,4.29-11.11c1.9-3.89,4.47-7.73,7.7-11.55c5.86-7.04,12.98-12.54,21.33-16.5c8.36-3.95,17.16-5.93,26.39-5.93
		c1.76,0,4.1,0.15,7.03,0.44c2.93,0.29,6.16,0.95,9.68,1.98c3.52,1.03,7.26,2.52,11.22,4.5c3.96,1.98,7.84,4.58,11.66,7.81
		c6.74,5.58,12.1,12.51,16.06,20.79c3.96,8.28,5.93,16.9,5.93,25.84c0,2.06-0.07,4.11-0.22,6.16c-0.15,2.05-0.37,4.11-0.65,6.15
		H853.15z M907.91,92.71c-0.73-1.32-1.72-2.9-2.96-4.73c-1.25-1.83-2.93-3.59-5.06-5.28c-2.13-1.68-4.69-3.11-7.7-4.28
		c-3.01-1.17-6.64-1.76-10.89-1.76c-6.31,0-12.02,1.83-17.16,5.5c-1.32,0.73-2.46,1.61-3.4,2.63c-0.96,1.03-1.58,1.69-1.87,1.98
		c-0.88,0.88-1.61,1.8-2.2,2.75s-1.17,2.02-1.76,3.19H907.91z"/>
	<path class="st1" d="M81.51,82.16c-0.29-2.05-0.7-3.92-1.21-5.61s-1.72-3.11-3.63-4.29c-1.32-0.88-2.85-1.32-4.61-1.32
		c-2.49,0-4.55,0.88-6.16,2.64c-1.61,1.76-2.42,3.89-2.42,6.38c0,3.23,1.32,5.8,3.96,7.7c1.32,0.88,3.15,1.69,5.5,2.42
		c2.34,0.73,5.27,1.61,8.8,2.64c4.69,1.17,8.98,2.38,12.87,3.62c3.88,1.25,7.81,3.34,11.77,6.27c4.54,3.23,7.81,7,9.79,11.33
		c1.98,4.33,2.97,9.2,2.97,14.62c0,1.32-0.08,2.94-0.22,4.84c-0.15,1.91-0.55,3.92-1.21,6.05c-0.66,2.13-1.65,4.39-2.97,6.81
		s-3.08,4.8-5.28,7.15c-1.31,1.62-3.07,3.3-5.27,5.06s-4.88,3.37-8.03,4.83c-3.15,1.47-6.79,2.71-10.89,3.74
		c-4.11,1.03-8.73,1.54-13.86,1.54c-8.8,0-15.84-1.25-21.11-3.74c-5.28-2.49-9.39-4.98-12.32-7.48c-1.91-1.61-3.67-3.37-5.28-5.28
		c-1.61-1.9-3.01-3.95-4.18-6.15c-1.75-3.37-2.85-6.48-3.29-9.35s-0.81-4.95-1.1-6.27h36.07c0.14,0.88,0.51,2.46,1.1,4.73
		c0.58,2.27,2.12,4.07,4.61,5.38c1.17,0.74,2.27,1.18,3.3,1.32c1.03,0.15,1.76,0.22,2.2,0.22c1.9,0,3.51-0.4,4.83-1.21
		c1.32-0.8,2.35-1.68,3.08-2.63c0.73-0.95,1.25-1.94,1.54-2.97s0.44-1.91,0.44-2.64c0-0.58-0.15-1.39-0.44-2.42
		c-0.29-1.02-0.81-2.12-1.54-3.29c-1.61-2.05-3.85-3.45-6.7-4.18c-2.86-0.73-6.64-1.69-11.33-2.86c-6.9-1.76-12.1-3.55-15.62-5.38
		c-3.52-1.83-6.53-3.92-9.02-6.27c-2.2-2.2-3.92-4.47-5.17-6.81s-2.16-4.54-2.75-6.6c-0.59-2.05-0.95-3.95-1.09-5.71
		c-0.15-1.76-0.22-3.22-0.22-4.4c0-4.25,0.43-7.73,1.31-10.45c0.88-2.71,1.76-4.87,2.64-6.48c1.91-3.81,4.4-7.15,7.48-10.01
		c3.07-2.86,6.45-5.21,10.12-7.04c3.66-1.83,7.55-3.22,11.66-4.17c4.1-0.95,8.21-1.43,12.32-1.43c6.59,0,12.27,0.88,17.04,2.64
		c4.76,1.75,8.76,3.92,11.99,6.48c3.22,2.57,5.75,5.36,7.59,8.36c1.83,3.01,3.19,5.76,4.07,8.25c0.88,2.49,1.39,4.8,1.54,6.92
		c0.15,2.13,0.29,3.63,0.44,4.51H81.51z"/>
	<path class="st1" d="M957.06,167.29c-10.37,0-18.81-8.44-18.81-18.81c0-10.37,8.44-18.81,18.81-18.81
		c10.37,0,18.81,8.44,18.81,18.81C975.87,158.85,967.43,167.29,957.06,167.29z"/>
</g>
</svg>
