<?xml version="1.0" encoding="utf-8"?>
<!-- Generator: Adobe Illustrator 24.1.2, SVG Export Plug-In . SVG Version: 6.00 Build 0)  -->
<svg version="1.1" xmlns="http://www.w3.org/2000/svg" xmlns:xlink="http://www.w3.org/1999/xlink" x="0px" y="0px"
	 viewBox="0 0 2142 342" style="enable-background:new 0 0 2142 342;" xml:space="preserve">
<style type="text/css">
	.st0{opacity:0.397;fill:#DEDEDE;enable-background:new    ;}
	.st1{fill:#FF2840;}
	.st2{fill:#FFFFFF;}
	.st3{fill:#72FF28;}
</style>
<g id="Layer_3">
</g>
<g id="Layer_5">
	<g id="Group_1094_2_">
		<g id="Group_1094_3_" transform="translate(-154 -520)">
			<rect x="325.5" y="674.5" class="st0" width="1799" height="33"/>
			<g id="Group_1087_1_" transform="translate(971.819 519.948)">
				<circle id="Ellipse_30_1_" class="st1" cx="1153" cy="171.1" r="73.7"/>
				<g id="Group_1079_1_" transform="translate(21.178 21.178)">
					<path class="st2" d="M1158.7,184.8c-2,0-3.9-0.8-5.4-2.3l-54.4-54.5c-3-3-3-7.9,0-10.9c3-3,7.9-3,10.9,0l54.4,54.5
						c3,3,3,7.9,0,10.9C1162.7,184,1160.7,184.8,1158.7,184.8z"/>
					<path class="st2" d="M1104.3,184.8c-2,0-3.9-0.8-5.4-2.3c-3-3-3-7.9,0-10.9l54.4-54.5c3-3,7.9-3,10.9,0c3,3,3,7.9,0,10.9
						l-54.4,54.5C1108.2,184,1106.3,184.8,1104.3,184.8z"/>
				</g>
			</g>
			<g id="Group_1089_1_" transform="translate(358.512 519.948)">
				<circle id="Ellipse_30-2_1_" class="st3" cx="417.7" cy="171.1" r="73.7"/>
				<g id="Group_1079-2_1_" transform="translate(18.056 21.068)">
					<path class="st2" d="M388.4,188.6c-2,0-3.9-0.8-5.4-2.3l-23.8-23.8c-3-3-3-7.9,0-10.9c3-3,7.9-3,10.9,0l23.8,23.8
						c3,3,3,7.9,0,10.9C392.3,187.8,390.3,188.6,388.4,188.6z"/>
					<path class="st2" d="M388.6,188.3c-1.5,0-3.1-0.5-4.4-1.4c-3.5-2.4-4.3-7.3-1.9-10.7l41-58.1c2.4-3.5,7.3-4.3,10.7-1.9
						c3.5,2.4,4.3,7.3,1.9,10.7l-41,58.1C393.4,187.2,391,188.3,388.6,188.3z"/>
				</g>
			</g>
			<g id="Group_1093_1_" transform="translate(562.948 519.948)">
				<circle id="Ellipse_30-3_1_" class="st3" cx="662.1" cy="171.1" r="73.7"/>
				<g id="Group_1079-3_1_" transform="translate(18.056 21.068)">
					<path class="st2" d="M633.7,188.6c-2,0-3.9-0.8-5.4-2.3l-23.8-23.8c-3-3-3-7.9,0-10.9c3-3,7.9-3,10.9,0l23.8,23.8
						c3,3,3,7.9,0,10.9C637.6,187.8,635.7,188.6,633.7,188.6z"/>
					<path class="st2" d="M633.9,188.3c-1.5,0-3.1-0.5-4.4-1.4c-3.5-2.4-4.3-7.3-1.9-10.7l41-58.1c2.5-3.5,7.3-4.3,10.7-1.9
						c3.5,2.4,4.3,7.3,1.9,10.7l-41,58.1C638.7,187.2,636.3,188.3,633.9,188.3z"/>
				</g>
			</g>
			<g id="Group_1092_1_" transform="translate(154.076 519.948)">
				<circle id="Ellipse_30-4_1_" class="st3" cx="171.1" cy="171.1" r="73.7"/>
				<g id="Group_1079-4_1_" transform="translate(18.056 21.068)">
					<path class="st2" d="M143,188.6c-2,0-3.9-0.8-5.4-2.3l-23.8-23.8c-3-3-3-7.9,0-10.9c3-3,7.9-3,10.9,0l23.8,23.8
						c3,3,3,7.9,0,10.9C147,187.8,145,188.6,143,188.6z"/>
					<path class="st2" d="M143.3,188.3c-1.5,0-3.1-0.5-4.4-1.4c-3.5-2.4-4.3-7.3-1.9-10.7l41-58.1c2.4-3.5,7.3-4.3,10.7-1.9
						c3.5,2.4,4.3,7.3,1.9,10.7l-41,58.1C148.1,187.2,145.7,188.3,143.3,188.3z"/>
				</g>
			</g>
			<g id="Group_1091_1_" transform="translate(768.383 519.948)">
				<circle id="Ellipse_30-5_1_" class="st1" cx="907.6" cy="171.1" r="73.7"/>
				<g id="Group_1079-5_1_" transform="translate(21.178 21.178)">
					<path class="st2" d="M914.6,184.8c-2,0-3.9-0.8-5.4-2.3l-54.5-54.5c-3-3-3-7.9,0-10.9c3-3,7.9-3,10.9,0l54.5,54.5
						c3,3,3,7.9,0,10.9C918.6,184,916.6,184.8,914.6,184.8z"/>
					<path class="st2" d="M860.2,184.8c-2,0-3.9-0.8-5.4-2.3c-3-3-3-7.9,0-10.9l54.5-54.5c3-3,7.9-3,10.9,0c3,3,3,7.9,0,10.9
						l-54.5,54.5C864.1,184,862.1,184.8,860.2,184.8z"/>
				</g>
			</g>
		</g>
	</g>
</g>
</svg>
